<mxfile host="app.diagrams.net" modified="2024-02-23T07:07:22.673Z" agent="Mozilla/5.0 (Windows NT 10.0; Win64; x64) AppleWebKit/537.36 (KHTML, like Gecko) Chrome/121.0.0.0 Safari/537.36" etag="ezBvXem2cqzJPyL4jhm2" version="23.1.6" type="device">
  <diagram id="f106602c-feb2-e66a-4537-3a34d633f6aa" name="Page-1">
    <mxGraphModel dx="1434" dy="738" grid="1" gridSize="10" guides="1" tooltips="1" connect="1" arrows="1" fold="1" page="1" pageScale="1" pageWidth="1169" pageHeight="827" background="none" math="0" shadow="0">
      <root>
        <mxCell id="0" />
        <mxCell id="1" parent="0" />
        <mxCell id="WKSU7iLLkj0RBHHprCL3-846" value="" style="group;fillColor=#E8E8E8;gradientColor=none;" vertex="1" connectable="0" parent="1">
          <mxGeometry x="270" y="160" width="580" height="290" as="geometry" />
        </mxCell>
        <mxCell id="WKSU7iLLkj0RBHHprCL3-831" value="" style="shape=image;verticalLabelPosition=bottom;labelBackgroundColor=default;verticalAlign=top;aspect=fixed;imageAspect=0;image=https://t.ctcdn.com.br/lvns56iaSMyHvyTur4JeYS_NYeY=/i606944.png;" vertex="1" parent="WKSU7iLLkj0RBHHprCL3-846">
          <mxGeometry x="8.814589665653497" y="7.740069686411175" width="24.567606382978727" height="24.567606382978727" as="geometry" />
        </mxCell>
        <mxCell id="WKSU7iLLkj0RBHHprCL3-784" value="" style="group" vertex="1" connectable="0" parent="WKSU7iLLkj0RBHHprCL3-846">
          <mxGeometry x="8.810000000000002" y="174.22580645161293" width="195" height="67.8225806451613" as="geometry" />
        </mxCell>
        <mxCell id="WKSU7iLLkj0RBHHprCL3-785" value="" style="strokeColor=#dddddd;shadow=1;strokeWidth=1;rounded=1;absoluteArcSize=1;arcSize=0;noLabel=0;" vertex="1" parent="WKSU7iLLkj0RBHHprCL3-784">
          <mxGeometry width="195" height="56.12903225806452" as="geometry" />
        </mxCell>
        <mxCell id="WKSU7iLLkj0RBHHprCL3-786" value="Google Colab&lt;div&gt;&lt;br&gt;&lt;/div&gt;" style="text;html=1;align=left;verticalAlign=middle;resizable=0;points=[];autosize=1;strokeColor=none;fillColor=none;" vertex="1" parent="WKSU7iLLkj0RBHHprCL3-784">
          <mxGeometry x="74" y="9.354838709677422" width="100" height="40" as="geometry" />
        </mxCell>
        <mxCell id="WKSU7iLLkj0RBHHprCL3-788" value="&lt;font color=&quot;#999999&quot; style=&quot;font-size: 9px;&quot;&gt;Google&lt;/font&gt;" style="text;html=1;align=left;verticalAlign=middle;resizable=0;points=[];autosize=1;strokeColor=none;fillColor=none;" vertex="1" parent="WKSU7iLLkj0RBHHprCL3-784">
          <mxGeometry x="74" y="21.75" width="50" height="30" as="geometry" />
        </mxCell>
        <mxCell id="WKSU7iLLkj0RBHHprCL3-722" value="" style="shape=image;verticalLabelPosition=bottom;labelBackgroundColor=default;verticalAlign=top;aspect=fixed;imageAspect=0;image=https://colab.research.google.com/img/colab_favicon_256px.png;" vertex="1" parent="WKSU7iLLkj0RBHHprCL3-784">
          <mxGeometry x="10" y="1.7587096774193558" width="51.71370967741936" height="51.71370967741936" as="geometry" />
        </mxCell>
        <mxCell id="WKSU7iLLkj0RBHHprCL3-849" value="&lt;b&gt;Google&lt;/b&gt;" style="text;html=1;align=center;verticalAlign=middle;resizable=0;points=[];autosize=1;strokeColor=none;fillColor=none;" vertex="1" parent="WKSU7iLLkj0RBHHprCL3-846">
          <mxGeometry x="35.54000000000002" y="4.67741935483871" width="60" height="30" as="geometry" />
        </mxCell>
        <mxCell id="14" value="&lt;b&gt;Google &lt;/b&gt;Cloud Platform" style="fillColor=#F6F6F6;strokeColor=none;shadow=0;gradientColor=none;fontSize=14;align=left;spacing=10;fontColor=#717171;9E9E9E;verticalAlign=top;spacingTop=-4;fontStyle=0;spacingLeft=40;html=1;container=0;" parent="1" vertex="1">
          <mxGeometry x="540" y="170" width="300" height="270" as="geometry" />
        </mxCell>
        <mxCell id="15" value="" style="shape=mxgraph.gcp2.google_cloud_platform;fillColor=#F6F6F6;strokeColor=none;shadow=0;gradientColor=none;" parent="1" vertex="1">
          <mxGeometry x="556" y="179" width="23" height="20" as="geometry">
            <mxPoint x="20" y="10" as="offset" />
          </mxGeometry>
        </mxCell>
        <mxCell id="WKSU7iLLkj0RBHHprCL3-848" style="edgeStyle=orthogonalEdgeStyle;rounded=0;orthogonalLoop=1;jettySize=auto;html=1;exitX=0.5;exitY=1;exitDx=0;exitDy=0;entryX=0.5;entryY=0;entryDx=0;entryDy=0;" edge="1" parent="1" source="bN5QILnUEAshqW3xWmmT-750" target="bN5QILnUEAshqW3xWmmT-754">
          <mxGeometry relative="1" as="geometry" />
        </mxCell>
        <mxCell id="bN5QILnUEAshqW3xWmmT-750" value="" style="strokeColor=#dddddd;shadow=1;strokeWidth=1;rounded=1;absoluteArcSize=1;arcSize=2;" parent="1" vertex="1">
          <mxGeometry x="596" y="233" width="195" height="60" as="geometry" />
        </mxCell>
        <mxCell id="bN5QILnUEAshqW3xWmmT-751" value="&lt;font color=&quot;#000000&quot;&gt;Bucket&lt;/font&gt;&lt;br&gt;GCP Cloud Storage" style="editableCssRules=.*;html=1;fontColor=#999999;shape=image;verticalLabelPosition=middle;verticalAlign=middle;labelPosition=right;align=left;spacingLeft=20;part=1;points=[];imageAspect=0;image=data:image/svg+xml,PHN2ZyB4bWxucz0iaHR0cDovL3d3dy53My5vcmcvMjAwMC9zdmciIHhtbG5zOnY9Imh0dHBzOi8vdmVjdGEuaW8vbmFubyIgd2lkdGg9IjIwIiBoZWlnaHQ9IjE2IiB2aWV3Qm94PSIwIDAgMjAgMTYiPiYjeGE7CTxzdHlsZSB0eXBlPSJ0ZXh0L2NzcyI+JiN4YTsJLnN0MHtmaWxsOiM0Mjg1ZjQ7fSYjeGE7CS5zdDF7ZmlsbDojNjY5ZGY2O30mI3hhOwkuc3Qye2ZpbGw6I2FlY2JmYTt9JiN4YTsJLnN0M3tmaWxsOiNmZmY7fSYjeGE7CTwvc3R5bGU+JiN4YTsJPHBhdGggY2xhc3M9InN0MiIgZD0iTTAgMGgyMHY3SDB6Ii8+JiN4YTsJPHBhdGggY2xhc3M9InN0MSIgZD0iTTE4IDBoMnY3aC0yeiIvPiYjeGE7CTxwYXRoIGNsYXNzPSJzdDAiIGQ9Ik0xOCA3bDItN2gtMnoiLz4mI3hhOwk8cGF0aCBjbGFzcz0ic3QxIiBkPSJNMCAwaDJ2N0gweiIvPiYjeGE7CTxnIGNsYXNzPSJzdDMiPiYjeGE7CQk8cGF0aCBkPSJNNCAzaDZ2MUg0eiIvPiYjeGE7CQk8cmVjdCB4PSIxMyIgeT0iMiIgd2lkdGg9IjMiIGhlaWdodD0iMyIgcng9IjEuNSIvPiYjeGE7CTwvZz4mI3hhOwk8cGF0aCBjbGFzcz0ic3QyIiBkPSJNMCA5aDIwdjdIMHoiLz4mI3hhOwk8cGF0aCBjbGFzcz0ic3QxIiBkPSJNMTggOWgydjdoLTJ6Ii8+JiN4YTsJPHBhdGggY2xhc3M9InN0MCIgZD0iTTE4IDE2bDItN2gtMnoiLz4mI3hhOwk8cGF0aCBjbGFzcz0ic3QxIiBkPSJNMCA5aDJ2N0gweiIvPiYjeGE7CTxnIGNsYXNzPSJzdDMiPiYjeGE7CQk8cGF0aCBkPSJNNCAxMmg2djFINHoiLz4mI3hhOwkJPHJlY3QgeD0iMTMiIHk9IjExIiB3aWR0aD0iMyIgaGVpZ2h0PSIzIiByeD0iMS41Ii8+JiN4YTsJPC9nPiYjeGE7PC9zdmc+;" parent="bN5QILnUEAshqW3xWmmT-750" vertex="1">
          <mxGeometry width="30" height="24" relative="1" as="geometry">
            <mxPoint x="15" y="18" as="offset" />
          </mxGeometry>
        </mxCell>
        <mxCell id="WKSU7iLLkj0RBHHprCL3-840" style="edgeStyle=orthogonalEdgeStyle;rounded=0;orthogonalLoop=1;jettySize=auto;html=1;exitX=0;exitY=0.5;exitDx=0;exitDy=0;entryX=1;entryY=0.5;entryDx=0;entryDy=0;" edge="1" parent="1" source="bN5QILnUEAshqW3xWmmT-754" target="WKSU7iLLkj0RBHHprCL3-785">
          <mxGeometry relative="1" as="geometry">
            <Array as="points">
              <mxPoint x="597" y="363" />
              <mxPoint x="474" y="363" />
            </Array>
          </mxGeometry>
        </mxCell>
        <mxCell id="bN5QILnUEAshqW3xWmmT-754" value="" style="strokeColor=#dddddd;shadow=1;strokeWidth=1;rounded=1;absoluteArcSize=1;arcSize=2;" parent="1" vertex="1">
          <mxGeometry x="597.5" y="333" width="192.5" height="57" as="geometry" />
        </mxCell>
        <mxCell id="bN5QILnUEAshqW3xWmmT-755" value="&lt;font color=&quot;#000000&quot;&gt;Banco em nuvem&lt;/font&gt;&lt;br&gt;BigQuery" style="editableCssRules=.*;html=1;fontColor=#999999;shape=image;verticalLabelPosition=middle;verticalAlign=middle;labelPosition=right;align=left;spacingLeft=20;part=1;points=[];imageAspect=0;image=data:image/svg+xml,PHN2ZyB4bWxucz0iaHR0cDovL3d3dy53My5vcmcvMjAwMC9zdmciIHhtbG5zOnY9Imh0dHBzOi8vdmVjdGEuaW8vbmFubyIgd2lkdGg9IjIwLjAwMTA0NTIyNzA1MDc4IiBoZWlnaHQ9IjIwLjAwMTA0NTIyNzA1MDc4IiBmaWxsLXJ1bGU9ImV2ZW5vZGQiIHZpZXdCb3g9IjAgMCAyMC4wMDEwNDUyMjcwNTA3OCAyMC4wMDEwNDUyMjcwNTA3OCI+JiN4YTsJPHN0eWxlIHR5cGU9InRleHQvY3NzIj4mI3hhOwkuc3Qwe2ZpbGw6I2FlY2JmYTt9JiN4YTsJLnN0MXtmaWxsOiM2NjlkZjY7fSYjeGE7CS5zdDJ7ZmlsbDojNDI4NWY0O30mI3hhOwk8L3N0eWxlPiYjeGE7CTxwYXRoIGNsYXNzPSJzdDAiIGQ9Ik00LjczIDguODN2Mi42M2E0LjkxIDQuOTEgMCAwIDAgMS43MSAxLjc0VjguODN6Ii8+JiN4YTsJPHBhdGggY2xhc3M9InN0MSIgZD0iTTcuODkgNi40MXY3LjUzQTcuNjIgNy42MiAwIDAgMCA5IDE0YTggOCAwIDAgMCAxIDBWNi40MXoiLz4mI3hhOwk8cGF0aCBjbGFzcz0ic3QwIiBkPSJNMTEuNjQgOS44NnYzLjI5YTUgNSAwIDAgMCAxLjctMS44MlY5Ljg2eiIvPiYjeGE7CTxwYXRoIGNsYXNzPSJzdDIiIGQ9Ik0xNS43NCAxNC4zMmwtMS40MiAxLjQyYS40Mi40MiAwIDAgMCAwIC42bDMuNTQgMy41NGEuNDIuNDIgMCAwIDAgLjU5IDBsMS40My0xLjQzYS40Mi40MiAwIDAgMCAwLS41OWwtMy41NC0zLjU0YS40Mi40MiAwIDAgMC0uNiAwIi8+JiN4YTsJPHBhdGggY2xhc3M9InN0MSIgZD0iTTkgMGE5IDkgMCAxIDAgMCAxOEE5IDkgMCAxIDAgOSAwbTAgMTUuNjlhNi42OCA2LjY4IDAgMCAxIC4wMDctMTMuMzYgNi42OCA2LjY4IDAgMCAxIDQuNzI3IDExLjQwM0E2LjY4IDYuNjggMCAwIDEgOSAxNS42OSIvPiYjeGE7PC9zdmc+;" parent="bN5QILnUEAshqW3xWmmT-754" vertex="1">
          <mxGeometry width="30" height="30" relative="1" as="geometry">
            <mxPoint x="15" y="15" as="offset" />
          </mxGeometry>
        </mxCell>
        <mxCell id="WKSU7iLLkj0RBHHprCL3-737" value="" style="group" vertex="1" connectable="0" parent="1">
          <mxGeometry x="930" y="143" width="195" height="60" as="geometry" />
        </mxCell>
        <mxCell id="WKSU7iLLkj0RBHHprCL3-729" value="" style="strokeColor=#dddddd;shadow=1;strokeWidth=1;rounded=1;absoluteArcSize=1;arcSize=0;noLabel=0;" vertex="1" parent="WKSU7iLLkj0RBHHprCL3-737">
          <mxGeometry width="195" height="60" as="geometry" />
        </mxCell>
        <mxCell id="WKSU7iLLkj0RBHHprCL3-728" value="" style="sketch=0;pointerEvents=1;shadow=0;dashed=0;html=1;strokeColor=none;fillColor=#505050;labelPosition=center;verticalLabelPosition=bottom;verticalAlign=top;outlineConnect=0;align=center;shape=mxgraph.office.users.csv_file;" vertex="1" parent="WKSU7iLLkj0RBHHprCL3-737">
          <mxGeometry x="20" y="15" width="39" height="30" as="geometry" />
        </mxCell>
        <mxCell id="WKSU7iLLkj0RBHHprCL3-736" value="CSV SETEMBRO" style="text;html=1;align=left;verticalAlign=middle;resizable=0;points=[];autosize=1;strokeColor=none;fillColor=none;" vertex="1" parent="WKSU7iLLkj0RBHHprCL3-737">
          <mxGeometry x="70" y="10" width="120" height="30" as="geometry" />
        </mxCell>
        <mxCell id="WKSU7iLLkj0RBHHprCL3-746" value="&lt;font color=&quot;#999999&quot; style=&quot;font-size: 9px;&quot;&gt;PNAD COVID19&lt;/font&gt;" style="text;html=1;align=left;verticalAlign=middle;resizable=0;points=[];autosize=1;strokeColor=none;fillColor=none;" vertex="1" parent="WKSU7iLLkj0RBHHprCL3-737">
          <mxGeometry x="70" y="25" width="90" height="30" as="geometry" />
        </mxCell>
        <mxCell id="WKSU7iLLkj0RBHHprCL3-747" value="" style="group" vertex="1" connectable="0" parent="1">
          <mxGeometry x="930" y="233" width="195" height="60" as="geometry" />
        </mxCell>
        <mxCell id="WKSU7iLLkj0RBHHprCL3-748" value="" style="strokeColor=#dddddd;shadow=1;strokeWidth=1;rounded=1;absoluteArcSize=1;arcSize=0;noLabel=0;" vertex="1" parent="WKSU7iLLkj0RBHHprCL3-747">
          <mxGeometry width="195" height="60" as="geometry" />
        </mxCell>
        <mxCell id="WKSU7iLLkj0RBHHprCL3-749" value="" style="sketch=0;pointerEvents=1;shadow=0;dashed=0;html=1;strokeColor=none;fillColor=#505050;labelPosition=center;verticalLabelPosition=bottom;verticalAlign=top;outlineConnect=0;align=center;shape=mxgraph.office.users.csv_file;" vertex="1" parent="WKSU7iLLkj0RBHHprCL3-747">
          <mxGeometry x="20" y="15" width="39" height="30" as="geometry" />
        </mxCell>
        <mxCell id="WKSU7iLLkj0RBHHprCL3-750" value="CSV OUTUBRO" style="text;html=1;align=left;verticalAlign=middle;resizable=0;points=[];autosize=1;strokeColor=none;fillColor=none;" vertex="1" parent="WKSU7iLLkj0RBHHprCL3-747">
          <mxGeometry x="69" y="10" width="110" height="30" as="geometry" />
        </mxCell>
        <mxCell id="WKSU7iLLkj0RBHHprCL3-751" value="&lt;font color=&quot;#999999&quot; style=&quot;font-size: 9px;&quot;&gt;PNAD COVID19&lt;/font&gt;" style="text;html=1;align=left;verticalAlign=middle;resizable=0;points=[];autosize=1;strokeColor=none;fillColor=none;" vertex="1" parent="WKSU7iLLkj0RBHHprCL3-747">
          <mxGeometry x="69" y="25" width="90" height="30" as="geometry" />
        </mxCell>
        <mxCell id="WKSU7iLLkj0RBHHprCL3-752" value="" style="group" vertex="1" connectable="0" parent="1">
          <mxGeometry x="930" y="323" width="195" height="60" as="geometry" />
        </mxCell>
        <mxCell id="WKSU7iLLkj0RBHHprCL3-753" value="" style="strokeColor=#dddddd;shadow=1;strokeWidth=1;rounded=1;absoluteArcSize=1;arcSize=0;noLabel=0;" vertex="1" parent="WKSU7iLLkj0RBHHprCL3-752">
          <mxGeometry width="195" height="60" as="geometry" />
        </mxCell>
        <mxCell id="WKSU7iLLkj0RBHHprCL3-754" value="" style="sketch=0;pointerEvents=1;shadow=0;dashed=0;html=1;strokeColor=none;fillColor=#505050;labelPosition=center;verticalLabelPosition=bottom;verticalAlign=top;outlineConnect=0;align=center;shape=mxgraph.office.users.csv_file;" vertex="1" parent="WKSU7iLLkj0RBHHprCL3-752">
          <mxGeometry x="20" y="15" width="39" height="30" as="geometry" />
        </mxCell>
        <mxCell id="WKSU7iLLkj0RBHHprCL3-755" value="CSV NOVEMBRO" style="text;html=1;align=left;verticalAlign=middle;resizable=0;points=[];autosize=1;strokeColor=none;fillColor=none;" vertex="1" parent="WKSU7iLLkj0RBHHprCL3-752">
          <mxGeometry x="69" y="10" width="120" height="30" as="geometry" />
        </mxCell>
        <mxCell id="WKSU7iLLkj0RBHHprCL3-756" value="&lt;font color=&quot;#999999&quot; style=&quot;font-size: 9px;&quot;&gt;PNAD COVID19&lt;/font&gt;" style="text;html=1;align=left;verticalAlign=middle;resizable=0;points=[];autosize=1;strokeColor=none;fillColor=none;" vertex="1" parent="WKSU7iLLkj0RBHHprCL3-752">
          <mxGeometry x="69" y="25" width="90" height="30" as="geometry" />
        </mxCell>
        <mxCell id="WKSU7iLLkj0RBHHprCL3-757" value="" style="edgeStyle=orthogonalEdgeStyle;rounded=0;orthogonalLoop=1;jettySize=auto;html=1;entryX=1;entryY=0.5;entryDx=0;entryDy=0;" edge="1" parent="1" source="WKSU7iLLkj0RBHHprCL3-748" target="bN5QILnUEAshqW3xWmmT-750">
          <mxGeometry relative="1" as="geometry" />
        </mxCell>
        <mxCell id="WKSU7iLLkj0RBHHprCL3-760" value="" style="edgeStyle=orthogonalEdgeStyle;rounded=0;orthogonalLoop=1;jettySize=auto;html=1;entryX=1;entryY=0.5;entryDx=0;entryDy=0;" edge="1" parent="1" source="WKSU7iLLkj0RBHHprCL3-753" target="bN5QILnUEAshqW3xWmmT-750">
          <mxGeometry relative="1" as="geometry" />
        </mxCell>
        <mxCell id="WKSU7iLLkj0RBHHprCL3-761" value="" style="edgeStyle=orthogonalEdgeStyle;rounded=0;orthogonalLoop=1;jettySize=auto;html=1;entryX=1;entryY=0.5;entryDx=0;entryDy=0;" edge="1" parent="1" source="WKSU7iLLkj0RBHHprCL3-729" target="bN5QILnUEAshqW3xWmmT-750">
          <mxGeometry relative="1" as="geometry" />
        </mxCell>
        <mxCell id="WKSU7iLLkj0RBHHprCL3-766" value="" style="group" vertex="1" connectable="0" parent="1">
          <mxGeometry x="16" y="259" width="214" height="60" as="geometry" />
        </mxCell>
        <mxCell id="WKSU7iLLkj0RBHHprCL3-767" value="" style="strokeColor=#dddddd;shadow=1;strokeWidth=1;rounded=1;absoluteArcSize=1;arcSize=0;noLabel=0;" vertex="1" parent="WKSU7iLLkj0RBHHprCL3-766">
          <mxGeometry width="195" height="60" as="geometry" />
        </mxCell>
        <mxCell id="WKSU7iLLkj0RBHHprCL3-769" value="JUPYTER NOTEBOOK" style="text;html=1;align=left;verticalAlign=middle;resizable=0;points=[];autosize=1;strokeColor=none;fillColor=none;" vertex="1" parent="WKSU7iLLkj0RBHHprCL3-766">
          <mxGeometry x="59" y="15" width="150" height="30" as="geometry" />
        </mxCell>
        <mxCell id="WKSU7iLLkj0RBHHprCL3-721" value="" style="shape=image;verticalLabelPosition=bottom;labelBackgroundColor=default;verticalAlign=top;aspect=fixed;imageAspect=0;image=data:image/png,iVBORw0KGgoAAAANSUhEUgAAANAAAADyCAMAAAALHrt7AAAAw1BMVEX////zdyZOTk6enp52dndhYmJCQkI8PDzybABFRUXyagBKSkq7u7vo6OjzdiNBQUHx8fGampqUlJTm5uY5OTm0tLTzcxvzcRTJycn39/fW1tbycA7v7+/FxcVaWlppaWr+9O+mpqb849f97eX2oXX1lmL70r/R0dF8fHz0gTr1kFj6x6/5v6T71sV5eXn4tZT0iUyIiIj3pXv839H96d/5vJ/3rIf0hEL1lF/71cMrKyv2oXb4sY7zfC/2m2vyYQAlJSWYM4IVAAAQiElEQVR4nO1dCXequhZuqWVUPFUElapYp1q1dajae271vv//q14GVIYAAQJoV7+1zlmtDSEfe8jOjuzc3f3iF78goTVp9B8eGs3nogfCBu1ar1eC6PVeO0UPJj0qK8wGo1dqFz2glGg66SBK/aKHlAplLx/A6KHoQaVAx8/npmVUIfEBjG7WjlZEPgBFDywh2mQBARHdqPeuBQmo9F700BKhFSQgIKJK0YNLgkkIoZvUuUYgn1LpJj13P4RQrejBJcHDL6Erx4+zIV+gfcFternnEEL1ogeXCIGhXCHB3GAznn/s/h29LSHeRsPdx3y8GcTpIlDneuWsRk1C62W2+1JlUTRNQwdQIeAPhmmKomy+7WYbi66r9AJqVep/ktHAGMzWU8DE0NX7QOi6KcqH4ewzuruAcLs3oWTTKHFcl+vWklmcNRvqshlGxQEVsDKOsygN7BNXrJRr8AbXfUTocqtWXDaf2z01mYusTPnw8RLa7xMhp7CiG9LKpoModWOF54PtQTZikjlJyhDV7zDl88mo9xSfD6REb0qzZVI2J07ydG4Fdj/puSjRTqll7tFNiNKRDHaimYaNzckUh8Gq1yidKPV6DVpjcMsHMqJ5Eps3WU/NBkOXl+PA+7Qbtdf311qDPttT9hF67EVeNJ6KrOhAqOL9jHrAUXj18XnkIvwCoJNe1zKjxPkJdZthF2z2zOlgSodgxYuBPyRCjeD2gy85CzqY0jJ8ZsqC0I6ZKyBSkodWakYkQkFubqwbGdKB0MXUptQjOAVyRGeNMtM2B8RlrHWGH32/234kNhwz9dTB0OV5KkIVn86RTego50IHQnyz0jCq+UREaPSi5yMeDN38Jw0jrwURooxtHtbjgCrvUhB67jplxBFc3EjMlQ6EuYy9MLug9X5m1O365WMdsnbWJOg6xUI9EM0S1wXgHgn+YJNJpBMNVU4VCj03G40Oaf6Z5Ww+DsjbNIwCsM3PW/shpnENZOzydwcuRkfGfNbF8gHO7ospn2F8PqquGyhPiiDLsv2TaRqGHjfZBWC8seRjxiFioGzv/mv9vZ2NF5uXz4GFMfh82SzGs/n3erQ35KjsaoaMKPUNUIFEhh8zqnz8YDPb/rs3ZZE2OWmMGPH5juYDs7riYThfxI/4rcUc5cIpWJlDJnzmEf4aktGP802KCAVM2vOjHk2Kifceh/KBZNaR+XY6DMZrVTZDg/mUKySIl2A+qi6KXzQ7IjEwmH2JYoig5FTLCQArMMkLNGSdtncyFmsjeE0sptSGPblnIJv1hs3widiszQBOqpqq4yFpvaCa8nHBaOTBWBxlonboaaajGcGAdHE6s1iNOhStGTFxLn4k7nHg46Ma8jBLVfPiZUjYd5ITj+Dg6Us1zQ+L4XBpYH2YXs1T9YR97QwPHTX9LJAEs3vPUllPFgNtZDcdhjs3cTE7uCklSxOrzj5MvTg6EDPVpXiiFb8Lp8IZYhaL+niYm44BJVA6R8ijyutUgScrOHdw4ieCpicJq+KSbbiWHIO3synF9nTz0xpIN4s1HjfGxklIxne8K098xJGVycgSY3jKDsqxolTbI+gik+1bpljYKyY9ThrIjnlSbs9kBXvHIE4EdNSRcyveV5MxR2qnLqkv+JSRN2CwtZ4RPlX4xEXqNcwINDf2VoYjSo03E4hoT9kYCkhkkzHKDjuZXkTAguTki6i8ABaflFYEXJx8TZNpEP6RVZnKzHdG6lxRPngR6WJUUc4+A8IGLyJNuDD7L8+kQTp8yhQRnXEb+obx8l9kk0UxeYOk+CfSfd2OvmHc2nh/8Ytf/OIXV4wfUoQIo90vaZTvOd0EOEFSpJt8GToAXY7jfgldM34JXTuulVAr6dYYA0J/6p6bP9cgLt8/b3WaAJ5vPHceIC6/t0GTDp4QK/0er2mCUmo4X4Ct9xsAvlfrK+UOALpZs1wudyAhZdXsdM4fO+7Rf+8qSrfU9303vgyBfmq+89pfz/vhFU2SJO1y6z9/q9Wq5vlGek0AjQTH7xpoA18qeH7VJIWDUHjNWS5E4yWJ/+t9yfdJ43n+LxphSQA/4iurCJrrxehOV8AdK5LgfSlQqvK8Bof+KIAmVQ/higCu4h2E0O9eQhLUjcvvfQlfU9YwGwxJuvT9hK7wflMftla66Md355XoasfzeH4UEBkFc3JzvXsEn1WBCAX0V3aEGnd9DY2Er/L26LSz+CvoT113N21H3yXJHi4aNwC/crSDf+GF3moFBAVv4Xq3tgflcvcs4KuZEGpI8PE3waAVofvUaTZW6L6A0dn44F05oe7vRsBG/FR6f39FjLqlHsLZRusaUjX8svRzDf7GO2WECcH/FV4QfDaUiBAPjRmy6trdtdB9OYU7NelUPWoEAHtRXj0f+LxcC37KX8qUtasu2QPhAioSlLbQ61R8HjYRoTKPBs9VHQ+uiRjx5+eMRMY7e5nArgXnA+VJhKB1SU6JIIl13Q24V6ClxPoXyQmBZi4BdJBSa6cn9gCvqTa9vSjOS0iE2lCR3e/N9UE74dIT0lTwj1woIQUhxfMa/EpxXorcgkvBkBK6qnCQCEHb0DzzoOTqCZuetw0DQt4u/yAK54eL3IJ2UfEJsgXXm/MEQlC/FG9NB3j/qpuQFFQkK4UN+UpJIBFpJ01oVt09wb96hEogdJriXID3E87uGcYXXgfKgpDvtpjCxWwkl8CQxlXd1xAIQbkK3gIIsOPL7RSfu2FDyP+M0LWXASK3cG6F2AruCwiEYBfVeqXuRAXNe+d2JPtlQsgfY/Mu5UZuQTrlQKDGeRXfT6iOXGVVcENy9cuFmRBbQo/QTC5TSElxXIYE5AlT/ISQ5yDi0i/n85aZEYIMHP4V29Tk8rMntiMQ6lwXoZ5bQji6xgSRxnmjbz8hPCEIBGjnB5UjIbQCdRCCPtieigSnRw8m1EAfVZ79qJwvTkDI+yhpCVU9A3zWTk8HqpIrbAgjVPW2cyMeoZbgu0kQIV8s9ezpyzYq6GHh7F71laMJsCEhPN2dgJDiqRO2UkiEfPMQHo3zY+QKNDA+zd1BICG0BqyGF3+KRwjdxBPtoi6cc3NApICjU9dHdrwKiRHGEDCx+nUzDaFHxWcf6LH5YznvZI2DU7dwoVsAQR/UWc1f0QnZnHv3AUWehKbJCSF7cT99NEE6pWY7V88Ca4VCHffcidyCcOePSxEI6o1WgcGBTQJC9tTmaNJAn/gJcZxLjhON8ysrXn/CqI5kGJz3VgBdpKVhFXRjEmrhVM7lufVxeoVASOk6GGG91LxpQfzEiS7BNjqPTNvo/kIIo5iEsOZwkl3ztd2rAi5EQgqnSOfHjlNavL+MIpYCeQRlrA1u/19DH0quaiLtlcN3hhOq+wghtUcJqtfVqwJTZApi7QjE7AUeVKRuv9lud2oSfgqEGjp9O8FFnFswIWHV7z89nqVdkuz7w67bk3K/xAuCY4RxCd01NPup4lSgAmYWwa3rdqTwiObbqlDl8aBJfLDv4xRy9fw+ZqTAdPSFccmOUCWUI+Ylz8KDgpBnLng4MUKXwgJ6yBB8hO56ztjYm7E9D08heMQTutLpcueE3HelmLF60xJqe+MviI5UtVPwEk7BoyS7n9BdQ+DPDR8DCinCNLfP+Z3xao9dcbmTeum0CYD+xmtdxwgFmNoP3DufeFIZpyGXJE3Qqr0+Nli4geFocwlOWw3UUOo9BFaxhUMKCWbaK7haUEp9t2uo9x/tZUO1u2q4Op8AeDd8PGMj3q/1HFjy1B1tt0I3vNC8poQ0CAbMLFTiljDuuzIZlAhaPpCABBRSJZE1UOwUsQDxIQahB1/+N2Og+1FWFT6DnhCKh4QcC83jbFloIVACqAmhSSHYxWUA7BfjXkVLqI7mqaC0egaooNA2vkZQEiqjCbqa2xcRKk9oLzN88UEEFaFKCa8LczoIYNLjBDsIjF+snoJQe4VDAMWbXMwKbTte46NqHZNAQcheRRHj1UyAEwCSkOhsOQpCOOsuhKc7mAJ+GaTbT/YtncZfEGT9L/xaKH0pz5NOGuVJ4pMeWig3G96mpnE5Bjw5oH6zh/BdI6yiBxATVlQDxsW7soYV/b56kvolxcGwIpvs9Og2V4MpRbXQgXywMh8IIyypaip8GfdWxgNhhL0xpWm2EXWdTY3CbGFNaQv171VVvN7iECcMVJ22eN5YTFsROgfAWtkm7UvEsAwbzVvWBQLWylYN2tZjWJbFZFmblzVQbVyTvggMqiOlq9dqSNYelh2iF9Dd3UK8v+I6OPZBGrFqXC1xdSNxaWU1quSwD9JQD3Eu+rSLsTE4koUxFqeDNOir+iD8e6oSlvpIFqZoHU+1vuKWO7XOJan1KyqJM7vUPY1XvAxde662Z95fR1WPF8cRW2b8aXJ5qR/I5giqlLCOjnMn1Pv4HbjK0OrysVhTstxHbCUqRrt1Vd7X5WFxlKxv0VVE1lgn6sZTmhpQKibf4KWTSOFQR97i+7r8lX+RlsFa9tbIpiuJRYC/XD2sTc10uFFYEE6qTFFFllA/XDXNXV7GZG3vCQW3U1UQnxJqkquGvMxDTOMR8YxXVU9TFtdnRicxycdsl7SbtRhQtD6xAWEsgk5J0E3xOM6ohPAm5FiB1LX85sHnjABOb3PW9mTNjmbIwQ9m+rM51mEn2+imfL8eW+l5YCy+p+FHcxgsTiH6Cj9aTYUHYa9T5/gH4++9LEac9KzTFgINxzLybEJ0uM3b9zgZq8FiOzJEM/rYaj3WIjUEU6rTFtFBStPhx/jFouzX+hxv10sTCIbqBCJVpe04Cq0D9fmR6HwoWZyO1h+zfzafFmEI1mCzmG13x70uxzojSqXYOqGFRc/oxEtH53fBo7v0w3S/hNhPD8De0GFeJjzGK945XqrJ0qHGZuQciRPJezEYTxB0dpQZdGb2c8ayiIMxz3ymzPnc3R2LO9vPpK8VHgffRZ0mmVmt7ILO+8wwMfhi5O8a1Jg533iwljEOYWQC45Dx+vg7X7WTsy81v8nxHO2cDtI45iWk3LanxuHnIzJCrntTw8yFpIpfVn58gCUdsnV3hp77FyXmYnbBXTGbbK2dP0vLiM7QKoAPgDXMgJIufxX4pcoBa0qATsGbhYMdMQOdCPCkyiv4ymtrqwafBxsDupj/SZVBWIzIZ6fGEs5bLo660p5MJu3ot1as+T656qmGeNjmsek0aTzZqPUnkTsNg21EYpoMmEn+yMNyWp3a08MFT7Vy9OaJNRuJlGlQTMYQxS/mGxhktJ+cdDClgLfS3XiZj3Q5MiOKMqzm2za3TeiGlw6iRPvSzGD8MVJF0UQJUjcRwATmwPXEqf1k6JP4AEZx3nJsfY7n38e3gwlzv6L93+HtuJvTp/NZIYAPQLL3Ni0MtoOMAaK+xdS6a0I7mA9gROUZrgthfACjqzg9Nw46EYTyfN2RCcL5AEZFDzAmQi0IEbqxdx4bEXweHm7M0UUJ6NZ07pmCUOLXkotAnYJQfmUrGCDSJ9yaV5j8NEI/TkI/zoZ+nJf7cfPQz4sUflwsd1f7WRoXvR6KWw6seEQQKnp48RGeU7g1C4L4aVmfkLxcrEzjNYFF5vS6kC63fY2Y1Hy7DzfpDy5old37Q0+dm8swetGa9E87eE8UO3i3gUp70qTZY/1FZvg/XddyAWqutWgAAAAASUVORK5CYII=;" vertex="1" parent="WKSU7iLLkj0RBHHprCL3-766">
          <mxGeometry x="14" y="6.75" width="39.97" height="46.5" as="geometry" />
        </mxCell>
        <mxCell id="WKSU7iLLkj0RBHHprCL3-771" value="" style="group" vertex="1" connectable="0" parent="1">
          <mxGeometry x="16" y="185" width="195" height="60" as="geometry" />
        </mxCell>
        <mxCell id="WKSU7iLLkj0RBHHprCL3-772" value="" style="strokeColor=#dddddd;shadow=1;strokeWidth=1;rounded=1;absoluteArcSize=1;arcSize=0;noLabel=0;" vertex="1" parent="WKSU7iLLkj0RBHHprCL3-771">
          <mxGeometry width="195" height="60" as="geometry" />
        </mxCell>
        <mxCell id="WKSU7iLLkj0RBHHprCL3-774" value="PYTHON" style="text;html=1;align=left;verticalAlign=middle;resizable=0;points=[];autosize=1;strokeColor=none;fillColor=none;" vertex="1" parent="WKSU7iLLkj0RBHHprCL3-771">
          <mxGeometry x="69" y="10" width="70" height="30" as="geometry" />
        </mxCell>
        <mxCell id="WKSU7iLLkj0RBHHprCL3-775" value="&lt;font size=&quot;1&quot; color=&quot;#999999&quot;&gt;3.11.X&lt;br&gt;&lt;/font&gt;" style="text;html=1;align=left;verticalAlign=middle;resizable=0;points=[];autosize=1;strokeColor=none;fillColor=none;" vertex="1" parent="WKSU7iLLkj0RBHHprCL3-771">
          <mxGeometry x="69" y="25" width="50" height="30" as="geometry" />
        </mxCell>
        <mxCell id="WKSU7iLLkj0RBHHprCL3-723" value="" style="shape=image;verticalLabelPosition=bottom;labelBackgroundColor=default;verticalAlign=top;aspect=fixed;imageAspect=0;image=data:image/jpeg,/9j/4AAQSkZJRgABAQAAAQABAAD/2wCEAAkGBxEOEA4QDw4RDw4PEQ4PDhAOFBARDg4RFxcXGBYTFhYZHioiGRsoHCEUIzMkJystMDAzGCE2OzYvOjcvMC0BCwsLDw4PHBERGy8hHiQtLS0vMi80Ly8tLy0tLS8vLy0vLzovMC8vMC8vLy8vLy8vLy0vLy8vLS8vLy8vLzEvL//AABEIAOsA1gMBIgACEQEDEQH/xAAcAAEAAgMBAQEAAAAAAAAAAAAAAQIEBQcGAwj/xABKEAACAQMAAwsFCwoGAwAAAAAAAQIDBBEFITEGEjJBUVJhcYGRoQcTFJPRFRYiQlNydJKxwdIXMzRUYoKisrPhIyQ1c9PwY2Tx/8QAGgEBAAMBAQEAAAAAAAAAAAAAAAECBAUDBv/EADYRAAIBAgIFCgUDBQAAAAAAAAABAgMRBCEFEjFhkRQyQVFxgaGxwfATFSLR4TNS8SNCYnKi/9oADAMBAAIRAxEAPwDuIAAAAAAAAB8rivCnFzqTjCEdblNpRXay1SainKTSSTbb2JLazk26PTk72q3lqjFvzVPiS5zXOfhnB60aTqPceVaqqa3nrNI7vKUHvaFKVZ86T83DsysvuR5+73bXk+DKnSXFvIJvvnk822XqW1SMd/KlUjDnShJQ72sG+NCnHov2mCVepLp4GbX0/dz4V1V/dnKC7o4MKpeVZcKrUl86c39rPg2VbPXVS2LwR5aze1viy0pN7XnrKqo1sk11Nohsq2AZMNJV4cGvVj82pUX2MzKG6e9p8G7q/vtVP50zUNlWQ4xe1IlSl1viz19h5Qrmm152FOtHj1eaqd61fwntdA7p7e9+DTlva2MulUwqnS48Ul1duDjLJjNxalFuMotOMotqUWtjTWxnjPDwlsyZ7QxE47cz9BA8fuF3U+mRdGu16TTWVLZ56C+N85asrt5cewOfOLi7M6EZKSugACpYAAAAAAAAAAAAAAAAAA0W7S4dOxrtbZKFPslJKXhk5Qzp3lCf+Sf+5S+05g2dHCczvOdi39fce+3A6Ep+bV1UipTlKSo77WoRi8OS/abT18i6z2slnU1lPU09h5fyfX8alqqOV5yi5qUeNxlJyjLq1tdh6ox123Ud/aNlCypq3tnL93mhYWtSnVpRUadbfZgtUadRYzjkTT2cWGeVbPb+U3SMZSo28WnKnvqtTHxW1iK68b59x4Zs30G3TVzBXSVRpBsq2GyjPU8g2VZLKsAMhsNlWwDI0bfytq1KvDhUpqaXOXxo9TWV2ne6VRTjGUXmMkpRfKmso/PLZ3bcy82Vk3t9Gt/6cTHi1kmbcI9qNoADEbAAAAAAAAAAAAAAAAAADzPlD/Qn/uUvvOXNnU93lCdS0cacJ1Jecpve04ynLGvXhHOXoa6/VLj1VX2HQwrXw+85+KTdTJdCMa1ualGanTnKE47JQeH1dK6Db1d2V9KO98/jicowpqT7cauzBr3oa6/VLj1VX2FXoa6/VLj1VX2Hs1B5ux4x+IsldGFObk25Nyk23Jybcm3tbb2so2Z70Jd/qlx6qr7Cr0Jd/qlx6qr+EtrLrK6kup8DXtkMzp6Hukm3aV0km23SqpJLa28GvbJTT2Bprag2Q2S2VbBAbKNhsq2CQ2d23L/oNl9Gt/5InB2zvG5b9Bsfo1v/AE4mTF81dprwu1m1ABhNoAAAAAAAAAANLuh0/TsoJy+HVkn5umnhvpb4okxi5OyIlJRV2beclFNyaSWttvCS6Waa53V2VN4dxGT/APEpVF3xTXic30tpetdy31Wo2s5jTjqpQ6o/e9Zr2bYYRbZPgYpYx/2ridP9/Fnzqnq5Ee/mz51X1bOXtlWy/JKe8pyupuOo+/uy51T1bI9/dlzqnq5HLmyrY5JT3jldTcdT9/llzqvq2R7/AGy51X1bOVtlWxyWnvHKqm46t7/bLnVfVsj3/wBjzqvq5HKGyrHJae8nlVTcdQv93VlUo1YRlUzOnUhHNNpZcWkcuDZVs9KdKNPmnlUqyntDZRslsq2ehQhsq2S2VbBJDZ3ncu8WFk//AFbf+nE4Kd53M/6fZ/RaH9NGPGc1M1YTnMzvTYcr7h6bDlfca4Hyi0lX3cPydf4MTY+mQ5fBn2hNPY0+o1AjNp5Tw+gvDSdRP60mt2XqyHQXQzdAxrSvv1r2raZJ2KdSNSKlF3TM7TTswAC5BiaRvI29KpVnwacXJ8rfFFdLeF2nINJX07irOrVeZzeeiK4oroR7Tyk3rjCjRT4cpVZ9UdUU+1t/ungWdDCwtHW6X5HPxU7y1eheYZVslsq2ajKQ2VbJbIbAIbKtktlWyCQ2UYZVgBkMNkNgBso2GyrYJDZVsNlWwSGyrDBAB3ncz/p9n9Fof00cGO87nFvbCzT1NWtvno/w0Y8ZzOPka8JzmUIyCMnwnQdwEZGSCCS9GrvJKXJ48puU861sZocm2sKm+gujK9h1NFVvqlTfTmvX04HhXjkpGUADuGU5bu8ud/e1I8VKFOmu7fvxl4HnGzO05W85c3M+WtVx1KTS8MGvbOvTVoJbjkVHebe8NlWw2Q2XKBsq2GyrZBIbKNktlWAGVbDDYBDZVslso2AQ2VbJbKtgsGyrYbIIAACXe9SS2t8gBk6NsZXNalQhw6s401+yntl1JZfYd8rpU6W9jqioxhFdGzHceR8nu5OVqvSbiOLicd7TpvbRg9rfJN+C1cbR6W+r76WFsj4nE0ri1Cm7PrS7X09yOng6LWb9pGNkjIyQfInVGSMjJUqSSZ+ip65x6E19/wBxrjK0dLFRdOV4Z+40YKeriIdtuOXqVqq8GbkAH1Zzzhdae+lKXOlJ97yfNsvWjvZSjzXJdzwfNs7RxQ2VbDZVsgkNlGyWyjADZDJSbaSTbbSSSbbb2JLjZ0fcruGhTUat5FVKrw40XrhT+fz5dGxdO0pUqKCuz0p03N2R4XRuhbm610KE6kefqjD68sLxN7T8nl7JZcqEOic55/hizp8riEPg8mpJbF0Hxd++KPezk1dLQhK113Js3wwKtnd+Bzd+Te9+Vtfr1vwEfk2vPlbX69b8B0n06XNXiPTpc37Ty+dU+vwZfkK6vE5q/Jre/K2v1634Cr8ml78ra/XrfgOmenS5q8R6dLmrxHzqn1+DHIV1eJzP8md78ra+srf8ZH5M735W19ZW/wCM6Z6fLmrxHp8uZ9pHzqn1/wDLJ5CurxOdW3kwuG/8W5owXLSVSo+5qJ7DQG461sWqii6taOtVa2G4fNWyPXt6TZyv5cSS7zGq1pS4Um/+8hnraai1aN34L7+B6QwSTvb1Mq6vM5jDtfsMEZGTgV6860taf8dhuhFRVkRkgEHgXGSARkrckH2s3ipDrR8Mn0svzkPnIvRf9SH+y8xJZM9CAD7M5ZxPTtLzd1cw5tarjq3za8MGA2ei3f23m76o+KrClVXdvX4xZ5xs68HeKe45FRWk1vZDZVslsoyxUMqwyVFyajFZlJpRXK3qSAPe+TXQKeb2rHOHKFunsytUqnfmK6pdB7i7r/Fi+tkWVtG1oU6ceDRhGC6WljL63r7TDPl9K4uXNi9vl+fudzC0VGPZ5gAHBNgAIyASQQRkrcknJGSMkZK3JsSVyMkFWyQRkEFSwIBGSpIyRkZIyVuSMmRo5Zqw6M+CMXJsdCwzKcuT7X/8NGChr4imt6fDP0KVXqwbNwAD7E5h4Lyo2WY29dLgudGX73wo/ZLvOfNnbdOaOV3b1aD1b+PwZc2a1xl2NI4ncUpU5ThOLjOEnCcXtjJPDR0MLO8NXq8jn4qFp63WfNshhlWaTMGzL0Is3NquJ3FBP68TDbMzQb/zVp9It/54kS2PsLQ5yO4X3AfYa42N/wADuNcfE6S/W7l5s+ho80AEGA9RkjIyVyVJsTkjJBGStyxJGSCMlbkggEFWyUSRkjJGSpIyRkZIyUuWGSMkkFWySDe6Mpbyms7ZfCfb/bBp7Shv5xjxPW+g9KdzQ1C8pVn0ZL19PEyYqeSiAAfQGIHi9225R3Wbi3S9ISSnDUlWS2YfFJbOk9oC0JuDuis4Kasz8/VYShKUZxcJxeJRknGUXyNPYUbO46U0Jb3f5+hCo0sKeuNRLkU44aXaaGr5O7OTypV4LkjODX8UWzbHFQazyMUsLJbGcqbMvQT/AM1Z/SLf+eJ0j8nFp8rc/Xp/gL23k+tadSnUjUruVOpCrFSlT3rlGSks/A2ZRLxNNpoiOHmnfI9Pf8DuNbk2V/wGazJ8hpL9fuXqdujzQRkZIOcewyQRkgq2STkgmCy4rlNn7nw/a7/7HvQwlSum4Wy3lJ1Iw2mqINt7mw/a7/7Ee5sOWff/AGPd6LxG7j+COUQ9o1OSMm39zYcs+/8AsPcyHLPvXsK/KsRu4/gnlFP2jT5K5Nz7lw5Zd69g9yqfLPvXsIeicTu4jlNP2jS5IN17lU+WXevYPcmnyy717CPlGJ/x4/gtymmaUmEXJpJZb2JbWbn3Lp/tPra+5GTRt4wXwYpfeXpaGrN/XJJbs35W97CssVG2WZ8tHWnm46+E+EZgB9DSpRpQUIbEYZScndgAHoQAAAAAAAAAYukOA+tGrybTSH5t9hqsnz2lP1+5epsoc0ZIyMlTmnsSQQCtywTxs2o+vpNT5R958clckxqTjzW12Noaqe0+/pdT5R95HpdT5R958MhJt4Sbb2Ja2x8er+58WNSPUj7emVOe+8j0yp8o+8mVjVSzvO7DfcYzJnPEQ57mu1yRMYwey3gff0yp8o+83ts24QbeW4pt8rwebPSWv5un8yH2I6eh6k51J60m8ltbfTvZnxUUoqy6T7AA+gMQAAAAAAAAAAAAAAAAABi6R/NvsNQbu5p7+Eo8bWo0bPn9LRaqqXQ15P8AKNmHd42GSARk5NzQCMjJGSrZYZIyRkjJVsknJt9EUkoKfxp518mOI0xttEV1vfNvhJtrpT1+06GinBYla3U7duXpc8cSnqZG0NPpmgk4zWpvVLpfEbg0ml7lTahF53uW2tnUdnSrgsNJS6dnb/G3dcy4dP4isYB6S24FP5kPsR52lTc5Ritsv+5PTRjhJLYlhGDQkHec+jJd+fke2LlkkWAB9AYgAAAAAAAAAAAAAAAAAAa6+s99mUVr41ymxB416EK8NSezxT6173PItCTi7o82yuTe3FpCptWvlNfV0XNcF77wPna+jK9N/StZbtvDbwubYV4PbkYOSMl6tGUeFFrpecd58snNleLtJWe80LPYWyQCClyQAfWnbVJcGDfTs8WTCLqO0Vfcs/BBu2byKyuJtYcpNcjeopCLk0kst7EtpsaOiZfHkkuRa/E2VC2jBfBjjl42zq0dF4is71Xqrfm+H32bzPLEQjlHMx9H2Xm1mWub7kZ4B9FRowowUIKyXviYZScndgAHqVAAAAAAAAAAAAAAAAAAAAAAAAB8nSi9sYvsR9QQ1dWYTtsMf0KnzEPQ6a+Iu3WZAPP4FL9i4L7FteXWz5wpKOxJdSPoAeqyVioAAAAAAAAAAAAAAAAAAAAAAAAAAABDKMAvkrvz5sqwD6+cHnD4sgA+3nB5w+AAMjzg84fAsgD7qROTHRdAH2B80XQBIAAAAAAAAAAAP//Z;clipPath=inset(0% 0% 8.72% 0% round 1%);" vertex="1" parent="WKSU7iLLkj0RBHHprCL3-771">
          <mxGeometry x="16" y="9.559999999999945" width="42.78" height="42.88" as="geometry" />
        </mxCell>
        <mxCell id="WKSU7iLLkj0RBHHprCL3-789" value="" style="group" vertex="1" connectable="0" parent="1">
          <mxGeometry x="16" y="332" width="195" height="60" as="geometry" />
        </mxCell>
        <mxCell id="WKSU7iLLkj0RBHHprCL3-790" value="" style="strokeColor=#dddddd;shadow=1;strokeWidth=1;rounded=1;absoluteArcSize=1;arcSize=0;noLabel=0;" vertex="1" parent="WKSU7iLLkj0RBHHprCL3-789">
          <mxGeometry width="195" height="60" as="geometry" />
        </mxCell>
        <mxCell id="WKSU7iLLkj0RBHHprCL3-791" value="Spark" style="text;html=1;align=left;verticalAlign=middle;resizable=0;points=[];autosize=1;strokeColor=none;fillColor=none;" vertex="1" parent="WKSU7iLLkj0RBHHprCL3-789">
          <mxGeometry x="81" y="6.75" width="50" height="30" as="geometry" />
        </mxCell>
        <mxCell id="WKSU7iLLkj0RBHHprCL3-793" value="&lt;font color=&quot;#999999&quot; style=&quot;font-size: 9px;&quot;&gt;Apache&lt;br&gt;&lt;/font&gt;" style="text;html=1;align=left;verticalAlign=middle;resizable=0;points=[];autosize=1;strokeColor=none;fillColor=none;" vertex="1" parent="WKSU7iLLkj0RBHHprCL3-789">
          <mxGeometry x="81" y="22.25" width="50" height="30" as="geometry" />
        </mxCell>
        <mxCell id="WKSU7iLLkj0RBHHprCL3-765" value="" style="shape=image;verticalLabelPosition=bottom;labelBackgroundColor=default;verticalAlign=top;aspect=fixed;imageAspect=0;image=data:image/png,iVBORw0KGgoAAAANSUhEUgAAAWAAAACPCAMAAADz2vGdAAAAyVBMVEX///84NDHnchUnIR3nagAqJSE1MS7nbADDwsExLCnnbgAoIx8xLSk3Mi8jHRj8/Pzc3Nzp6ekuKibz8/MgGhWdnJv29vbncA1BPTrk5OTU1NN2dHLmchb67OLn5+fHx8ZjYV+1tLMaEwyqqaj45djuq4D78uv22cZYVlSRkI9raWejoqGDgX91c3Gvrq3oeyb0zbXrjU3vtI7sl1/snWnpgjbzw6UQBABLSUeMi4pQT03ph0H10brpfi/uo3PwsozrkFHyvZwAAAAjFdawAAAM60lEQVR4nO1baXuywA4V2WQRFHDXutSqrdpN21q7vb3//0ddZpgMA4LV+1Qt3jmfKqQsISQnZ0Iux8Hxmxh1Rqe+hHOGvbzT88vOqS/jbDG6k/L5mi6NT30hZwr7Sc9jqMNTX8p54lEK/JuvvZ36Us4SVb1NHJyXvk99MeeIewhglCQ4l/h9LPTQwfri1FdzhrirhQ7OS++nvpyzQ4cJ4Hy79mGf+oLODWMmBaMs/HjqCzo3fKsk/UKS4A3d7+ITO7j29EUiWf+XYmiPRpxj/A94wDVOX9Jil1jnht+Lj3b+7pO7eF+M2tiv0jPlw7WnWJ3r3C/akqr7djVV5930nhjiDNFGQg8QYvUr3N25v3qSpJBoqJ+nu9RsIojbNmrhhsAniOgzGn896JLK0mQuV+yNr6DG3aG08MjUueH3W9y5vNX7XxDkhcBv9gdxqP5wl+Bckqs59kLAHfQr/OOdCpdJzkXb25xG7IeqGglMVvhJDGAuVewJ0ijDWsYo5uA2omYSjWfp6rRXm0EA+YU3/zGiTPjOlZ6+hlfA33iF2xuf2HcM+YI6167pqv6xfPc9P1bbpPSd8EKzijdolAFjnJR1VbpbPgeyz1APfF674wVuT3SeF4HvWI1yqaqSvngeQr9st4l/eZe8Hzrfbyr0wOxExOjtccyIEfZbYNPmBGIP2MOvJ7aT2KIBL4lczDuM3TG+eoorDKm2VxInaHvBfl+2JT3WqOkfaebPEidoe2B0v9Q3vFtT1be0138My0lvnED8jNFVXop3wj4de/tOZQedGiEQXIHYAWM9po/V/Gj+97zFdSMgaHwocAeMpah7USdxvzUwgaDlVU7QfgaVeoOQlPKf7z+99ksp6JD5ROAueGdEnNrd5/jn+Z1HTtD2AYyXoML2uct0FBC0GidoO+GZiWD97urn6R1IKRIvcDthxJY4n/o+3P/wD+8kA/N1+h1xJbXzrI+l2tf22AyEzHybz6rtBvshOkWJqMS/bTwNpi6zvlDf6Pb73fIRTlR9kOJrxX4Yf6aH8SL73x65tz3LEw1D9JxZ8/Cn+85vuFiVvlIpxRCEiH+Hv7SDwH3VRFMIUHSs+cXBzzh6bEddLD340XnxmmK+TJDjM4S+6QgsHLF7+JPa90+h4KPrSEW7tOYpxh06bnn4C/t9tDxFiKLo9Y9x4vFCV/PtfLsmLfwSV5qIciXNNJjNzuRqkd2ThU0cI4Z9dK50qabmEROuyKYgFtIMYQwlgyGc6F9BkY9BJ3yMvmtLP3ybK3QZRnp9pQtGP7Ulfw2tRP8KgjY54kVUXwc4S8kNZmMjUmqpIpyxj7v6FnWpKTtMLlZeUl/XX4dbJ0/ZYTbaSjM3XNzT5u0bQjhTa8rVOvjUEXvTylqEn6ZxnCSM0SVPWamH2+yJN81VJUl/+woETRuysJ6lEL4UiUPlmYt+l9YBYTN6R0rBGH0SwFov3NZztFkud4f7aH3x3LHpcKCUpe8TJyRiHcrwJ5ofSYPro17FFDJEeNqZjN1NeuSapD59PkNjomdn3bM8gIxQhU1+0tDMI6YHhDnpIuVb2FKxUMJwc49UnK+p9E/206M/jr6xmfy6LzdusnXVLZfLbjV554alu5Mlxoq8R5QGTz300ypHlpdCYSj+9dzfxSVwNIW55MQmzi5d39RlyxOdVeuykWRBLZuBpeGs5replm6piVFCJzaLwVVYpWDnrVUkzU5HTXBwXs+MLgzJT5Avt9q513XR0YI4U3w610ttCMrIEjus6Fsazk2iZb8nyAaCVfcdXJbBwcFjBlLhN86jWtI3MNlZO6IRLIhbNEr3dSBH1QrTS04jvqUTtdQG8w0+0i2K5GEJiCnkmpCoBOzgJpxM9N+lh6RvuLITwZCDUVym8rK+AxHGOs5JKIR9IaEtdITYs7tmtCXMXrqEKyq4eWwQ5xetaQ5/4vkkxbTjDKnCrhcGZT2lJs2tuNZG7j/e6dkplkpUmmtZzD6cmm6BpaFwdk1yEI8qa53vN4kdFMySKHxj0nvVVkkedutRqZhBrJd2V+mWTLRXWP8Got2M/COiwW6dXJEVoeIj/JV98BGHmqVeucvcrtPbZD/llSmkwmKzilvXUg0Vh7KJpsHuKMqIN9yENNjuEWeLG2sbo/erD9WP5EWG4tdHj3GLvCGguSu6u6jIog/DDPMx29lWGf8GliJT7kxqeRN9DEWkmPWIoc/SQNsTZ0kXa4+Gw8xQYIKLSEaMr9hM6FuviZNpt9RoFlpCWPIsmlztNXWcKRPL15VIj+yRdFKC1lGRLR8eanDKIDjJ5Rn5DyNt6SiD6Id1zr+xaOBcw/tctFol2OiGLEBZQzxdgy8Va04t7Vv6LJRVsAmId1HplzD8bQ14ivUZ2Su3Dn7bR8SMzYoie2tNiG7TinCyrgEetggDa8JTMqMyRoNaeoElZCR26aJEXyKy0+kd5EZPhh5b/dnktybeMVcxjtwFugsiHIgJWpzrUc87wXEFJfJ/GP1I3fN3HnMt5ShYs4VHpPSoQGXwjR6kQjysCIEldAr1jf4OKJiyxj8hB0zZg0XpndbbWSTKCsoCy8VoAzEhWwelzX+Bt3pgs5YJa5bw/hcF9JRKJClH1qxfow6Wj7dUdTSUIxx2EARskxR8OUl8vyZOwUm4RPJA4lQDzbroMUFTbLEqW4y5KWaKWppllASmyXUCjkR8WNSS7rdA8iYORQhBJ4mjvrKPAhzMCh92PdZgs/T6bFAymLsMlLV6Qj2iKJOgxRL5apsllDDsYJJuFbYrr1K2DInK2q6dZhNsDDuIqzVkxjEboA72I7g6YJ9LHE2ROc48yAbmDWPQAKJRh4KYcs6MoxQ2aIrgMhpioowJMhxyBeEQRSuxiy2RB4VzMEnIJsu2KQVZuwp5yEqi7pR1NF9oCHsNqiGGzVoE4P5BlVoW61sdrPjHtCGZsHUTxEo/rJkhgoPc4olBb08w+rQ4pTiYtLyKkqPLItANx0DkM2XlH+cCGEVh81CYG1PpaXCGXI25PeRgQp5S3lbS5OEVH3BwcgSTWMerFQ3Qctgc2zPDk5aBXyvJmSnjAO4VOJjcd+JSEnTAaNWMLuwl52DS9GmoroG4IbOtS53kfkxIbsHD2k3SwbKGavRzDEiXKAe79fisAgsSdYqCwhuSaPJwL6EGOO1CNtDYR2GEJw2P7B8tdRY7M6heml6kmFAH+73UBVAmMyGUgNsGzBdoQHLQkakd7H2S14vMmEuuDJnfwz8vNBLQxUHWudptXSwKDpsA2Bm8UEPcJKVNWHTH1CtX9VIt0ZBkYItbvhbJ66xc1qRCUfD7kqbhVdYWLyIoIPfSthgDSBTWFEINsajEeuUmCO5EgqSy5oaY1q3kXNLAoARgE0OHfW9o9wzxP4FSm2Wu1pzACnu4pG7PISugsK6EEw7aJFLnLukMMVQ1amuuIh6+fSlQXjDwf1eJ6yJjRBuTlQ16ZusoX+IcBLNwtcwgxaQ0oSo66rNYDVETwjtt9mhoU64aukSrs5aiH7ZAHEx/i01ySYQGt2BJmRY1yscVJ7O6Wil0sCAL037/ch0OjWC5cs5qiEVDqBTsqluY1un3iuwbTEUE37Je6brVaqGCLLUybQhR2gVnWyxLo3Jmf2PTcb8T+V1MGPFMkQ2DmT3DWlZcQ1Rk0fM8kTGTGc7gMrNVxdAS5WSSPnACgLw+YK8EErgXer3sweGMzHK1AruWHIGDHWeLafvBv5Hg6g+SbNA0BEk1OO1CR2Iy/1kGFY/9bGxKKcyW77r+OCYpEztOoD00Uh8AufEY531NeiBaiwYoTgAzwtLWzD9C/o4yEJokyKJfBnFhKgkuEWSi7XS3RrDibSwjzaxNM9SHEE/htMsKGABaBHvs0eioRFBxM4lCwiik4s0J84Keoy4nWBlCwuhqZbBhKfZzNskdHopPMnXlsImVipXRWZ4K5SrZ5WoFMTatp8ga5U+XUJtKKyNW7gxzmthiNVdizNJvdklDqAhItACph6XBsHrqxLoKOnSoOJnV1Ro3Hkt2RaESKpNES0MabX/t0TE+TfbW01Ry6lvSgDeRpZ0rvOA5QA+l3Wbwt/gftnC1BsHGl9g63MXACnaIXoZb5uZM9ERDlg3REud9VvglXTOWaOxmZeINLMsayL1Kadvd+pZry0OWDrG86BYwkFLmkr+b7CFKwbZCN/7YGsTaR2bbDYRSoT+d9gvx2RJYa6fzC3YwqLcD3J0t/49RhtKT2fz3x0E0xIRZM45fAaHBZzlj8ydAWJp2RoPmfwvsQhrHAUBosJjZLuqvAxbSMqtl/XHAmr3MCe1h0PBMDUHObpP6t9G4aSHMMysVcnBwcHBwcHBwcHBwcHBwcHBwcHBwcHBwcHBwcHBwcHBwcHBwcHBwcHBwcHBwcHBwcHBwcOyB/wIRy+uIPmoMLgAAAABJRU5ErkJggg==;clipPath=inset(0% 16.67% 16.39% 21%);" vertex="1" parent="WKSU7iLLkj0RBHHprCL3-789">
          <mxGeometry x="9" y="13.370000000000005" width="61" height="33.27" as="geometry" />
        </mxCell>
        <mxCell id="WKSU7iLLkj0RBHHprCL3-795" value="" style="edgeStyle=orthogonalEdgeStyle;rounded=0;orthogonalLoop=1;jettySize=auto;html=1;entryX=0;entryY=0.5;entryDx=0;entryDy=0;" edge="1" parent="1" source="WKSU7iLLkj0RBHHprCL3-767" target="WKSU7iLLkj0RBHHprCL3-785">
          <mxGeometry relative="1" as="geometry" />
        </mxCell>
        <mxCell id="WKSU7iLLkj0RBHHprCL3-797" value="" style="edgeStyle=orthogonalEdgeStyle;rounded=0;orthogonalLoop=1;jettySize=auto;html=1;entryX=0;entryY=0.5;entryDx=0;entryDy=0;" edge="1" parent="1" source="WKSU7iLLkj0RBHHprCL3-772" target="WKSU7iLLkj0RBHHprCL3-785">
          <mxGeometry relative="1" as="geometry">
            <mxPoint x="382.5" y="230" as="targetPoint" />
          </mxGeometry>
        </mxCell>
        <mxCell id="WKSU7iLLkj0RBHHprCL3-801" value="" style="edgeStyle=orthogonalEdgeStyle;rounded=0;orthogonalLoop=1;jettySize=auto;html=1;entryX=0;entryY=0.5;entryDx=0;entryDy=0;" edge="1" parent="1" source="WKSU7iLLkj0RBHHprCL3-790" target="WKSU7iLLkj0RBHHprCL3-785">
          <mxGeometry relative="1" as="geometry">
            <mxPoint x="382.5" y="390" as="targetPoint" />
          </mxGeometry>
        </mxCell>
        <mxCell id="WKSU7iLLkj0RBHHprCL3-803" value="" style="group" vertex="1" connectable="0" parent="1">
          <mxGeometry x="549" y="546" width="195" height="60" as="geometry" />
        </mxCell>
        <mxCell id="WKSU7iLLkj0RBHHprCL3-804" value="" style="strokeColor=#dddddd;shadow=1;strokeWidth=1;rounded=1;absoluteArcSize=1;arcSize=0;noLabel=0;" vertex="1" parent="WKSU7iLLkj0RBHHprCL3-803">
          <mxGeometry width="195" height="60" as="geometry" />
        </mxCell>
        <mxCell id="WKSU7iLLkj0RBHHprCL3-805" value="PYTHON" style="text;html=1;align=left;verticalAlign=middle;resizable=0;points=[];autosize=1;strokeColor=none;fillColor=none;" vertex="1" parent="WKSU7iLLkj0RBHHprCL3-803">
          <mxGeometry x="69" y="10" width="70" height="30" as="geometry" />
        </mxCell>
        <mxCell id="WKSU7iLLkj0RBHHprCL3-806" value="&lt;font size=&quot;1&quot; color=&quot;#999999&quot;&gt;3.11.X&lt;br&gt;&lt;/font&gt;" style="text;html=1;align=left;verticalAlign=middle;resizable=0;points=[];autosize=1;strokeColor=none;fillColor=none;" vertex="1" parent="WKSU7iLLkj0RBHHprCL3-803">
          <mxGeometry x="69" y="25" width="50" height="30" as="geometry" />
        </mxCell>
        <mxCell id="WKSU7iLLkj0RBHHprCL3-807" value="" style="shape=image;verticalLabelPosition=bottom;labelBackgroundColor=default;verticalAlign=top;aspect=fixed;imageAspect=0;image=data:image/jpeg,/9j/4AAQSkZJRgABAQAAAQABAAD/2wCEAAkGBxEOEA4QDw4RDw4PEQ4PDhAOFBARDg4RFxcXGBYTFhYZHioiGRsoHCEUIzMkJystMDAzGCE2OzYvOjcvMC0BCwsLDw4PHBERGy8hHiQtLS0vMi80Ly8tLy0tLS8vLy0vLzovMC8vMC8vLy8vLy8vLy0vLy8vLS8vLy8vLzEvL//AABEIAOsA1gMBIgACEQEDEQH/xAAcAAEAAgMBAQEAAAAAAAAAAAAAAQIEBQcGAwj/xABKEAACAQMAAwsFCwoGAwAAAAAAAQIDBBEFITEGEjJBUVJhcYGRoQcTFJPRFRYiQlNydJKxwdIXMzRUYoKisrPhIyQ1c9PwY2Tx/8QAGgEBAAMBAQEAAAAAAAAAAAAAAAECBAUDBv/EADYRAAIBAgIFCgUDBQAAAAAAAAABAgMRBCEFEjFhkRQyQVFxgaGxwfATFSLR4TNS8SNCYnKi/9oADAMBAAIRAxEAPwDuIAAAAAAAAB8rivCnFzqTjCEdblNpRXay1SainKTSSTbb2JLazk26PTk72q3lqjFvzVPiS5zXOfhnB60aTqPceVaqqa3nrNI7vKUHvaFKVZ86T83DsysvuR5+73bXk+DKnSXFvIJvvnk822XqW1SMd/KlUjDnShJQ72sG+NCnHov2mCVepLp4GbX0/dz4V1V/dnKC7o4MKpeVZcKrUl86c39rPg2VbPXVS2LwR5aze1viy0pN7XnrKqo1sk11Nohsq2AZMNJV4cGvVj82pUX2MzKG6e9p8G7q/vtVP50zUNlWQ4xe1IlSl1viz19h5Qrmm152FOtHj1eaqd61fwntdA7p7e9+DTlva2MulUwqnS48Ul1duDjLJjNxalFuMotOMotqUWtjTWxnjPDwlsyZ7QxE47cz9BA8fuF3U+mRdGu16TTWVLZ56C+N85asrt5cewOfOLi7M6EZKSugACpYAAAAAAAAAAAAAAAAAA0W7S4dOxrtbZKFPslJKXhk5Qzp3lCf+Sf+5S+05g2dHCczvOdi39fce+3A6Ep+bV1UipTlKSo77WoRi8OS/abT18i6z2slnU1lPU09h5fyfX8alqqOV5yi5qUeNxlJyjLq1tdh6ox123Ud/aNlCypq3tnL93mhYWtSnVpRUadbfZgtUadRYzjkTT2cWGeVbPb+U3SMZSo28WnKnvqtTHxW1iK68b59x4Zs30G3TVzBXSVRpBsq2GyjPU8g2VZLKsAMhsNlWwDI0bfytq1KvDhUpqaXOXxo9TWV2ne6VRTjGUXmMkpRfKmso/PLZ3bcy82Vk3t9Gt/6cTHi1kmbcI9qNoADEbAAAAAAAAAAAAAAAAAADzPlD/Qn/uUvvOXNnU93lCdS0cacJ1Jecpve04ynLGvXhHOXoa6/VLj1VX2HQwrXw+85+KTdTJdCMa1ualGanTnKE47JQeH1dK6Db1d2V9KO98/jicowpqT7cauzBr3oa6/VLj1VX2FXoa6/VLj1VX2Hs1B5ux4x+IsldGFObk25Nyk23Jybcm3tbb2so2Z70Jd/qlx6qr7Cr0Jd/qlx6qr+EtrLrK6kup8DXtkMzp6Hukm3aV0km23SqpJLa28GvbJTT2Bprag2Q2S2VbBAbKNhsq2CQ2d23L/oNl9Gt/5InB2zvG5b9Bsfo1v/AE4mTF81dprwu1m1ABhNoAAAAAAAAAANLuh0/TsoJy+HVkn5umnhvpb4okxi5OyIlJRV2beclFNyaSWttvCS6Waa53V2VN4dxGT/APEpVF3xTXic30tpetdy31Wo2s5jTjqpQ6o/e9Zr2bYYRbZPgYpYx/2ridP9/Fnzqnq5Ee/mz51X1bOXtlWy/JKe8pyupuOo+/uy51T1bI9/dlzqnq5HLmyrY5JT3jldTcdT9/llzqvq2R7/AGy51X1bOVtlWxyWnvHKqm46t7/bLnVfVsj3/wBjzqvq5HKGyrHJae8nlVTcdQv93VlUo1YRlUzOnUhHNNpZcWkcuDZVs9KdKNPmnlUqyntDZRslsq2ehQhsq2S2VbBJDZ3ncu8WFk//AFbf+nE4Kd53M/6fZ/RaH9NGPGc1M1YTnMzvTYcr7h6bDlfca4Hyi0lX3cPydf4MTY+mQ5fBn2hNPY0+o1AjNp5Tw+gvDSdRP60mt2XqyHQXQzdAxrSvv1r2raZJ2KdSNSKlF3TM7TTswAC5BiaRvI29KpVnwacXJ8rfFFdLeF2nINJX07irOrVeZzeeiK4oroR7Tyk3rjCjRT4cpVZ9UdUU+1t/ungWdDCwtHW6X5HPxU7y1eheYZVslsq2ajKQ2VbJbIbAIbKtktlWyCQ2UYZVgBkMNkNgBso2GyrYJDZVsNlWwSGyrDBAB3ncz/p9n9Fof00cGO87nFvbCzT1NWtvno/w0Y8ZzOPka8JzmUIyCMnwnQdwEZGSCCS9GrvJKXJ48puU861sZocm2sKm+gujK9h1NFVvqlTfTmvX04HhXjkpGUADuGU5bu8ud/e1I8VKFOmu7fvxl4HnGzO05W85c3M+WtVx1KTS8MGvbOvTVoJbjkVHebe8NlWw2Q2XKBsq2GyrZBIbKNktlWAGVbDDYBDZVslso2AQ2VbJbKtgsGyrYbIIAACXe9SS2t8gBk6NsZXNalQhw6s401+yntl1JZfYd8rpU6W9jqioxhFdGzHceR8nu5OVqvSbiOLicd7TpvbRg9rfJN+C1cbR6W+r76WFsj4nE0ri1Cm7PrS7X09yOng6LWb9pGNkjIyQfInVGSMjJUqSSZ+ip65x6E19/wBxrjK0dLFRdOV4Z+40YKeriIdtuOXqVqq8GbkAH1Zzzhdae+lKXOlJ97yfNsvWjvZSjzXJdzwfNs7RxQ2VbDZVsgkNlGyWyjADZDJSbaSTbbSSSbbb2JLjZ0fcruGhTUat5FVKrw40XrhT+fz5dGxdO0pUqKCuz0p03N2R4XRuhbm610KE6kefqjD68sLxN7T8nl7JZcqEOic55/hizp8riEPg8mpJbF0Hxd++KPezk1dLQhK113Js3wwKtnd+Bzd+Te9+Vtfr1vwEfk2vPlbX69b8B0n06XNXiPTpc37Ty+dU+vwZfkK6vE5q/Jre/K2v1634Cr8ml78ra/XrfgOmenS5q8R6dLmrxHzqn1+DHIV1eJzP8md78ra+srf8ZH5M735W19ZW/wCM6Z6fLmrxHp8uZ9pHzqn1/wDLJ5CurxOdW3kwuG/8W5owXLSVSo+5qJ7DQG461sWqii6taOtVa2G4fNWyPXt6TZyv5cSS7zGq1pS4Um/+8hnraai1aN34L7+B6QwSTvb1Mq6vM5jDtfsMEZGTgV6860taf8dhuhFRVkRkgEHgXGSARkrckH2s3ipDrR8Mn0svzkPnIvRf9SH+y8xJZM9CAD7M5ZxPTtLzd1cw5tarjq3za8MGA2ei3f23m76o+KrClVXdvX4xZ5xs68HeKe45FRWk1vZDZVslsoyxUMqwyVFyajFZlJpRXK3qSAPe+TXQKeb2rHOHKFunsytUqnfmK6pdB7i7r/Fi+tkWVtG1oU6ceDRhGC6WljL63r7TDPl9K4uXNi9vl+fudzC0VGPZ5gAHBNgAIyASQQRkrcknJGSMkZK3JsSVyMkFWyQRkEFSwIBGSpIyRkZIyVuSMmRo5Zqw6M+CMXJsdCwzKcuT7X/8NGChr4imt6fDP0KVXqwbNwAD7E5h4Lyo2WY29dLgudGX73wo/ZLvOfNnbdOaOV3b1aD1b+PwZc2a1xl2NI4ncUpU5ThOLjOEnCcXtjJPDR0MLO8NXq8jn4qFp63WfNshhlWaTMGzL0Is3NquJ3FBP68TDbMzQb/zVp9It/54kS2PsLQ5yO4X3AfYa42N/wADuNcfE6S/W7l5s+ho80AEGA9RkjIyVyVJsTkjJBGStyxJGSCMlbkggEFWyUSRkjJGSpIyRkZIyUuWGSMkkFWySDe6Mpbyms7ZfCfb/bBp7Shv5xjxPW+g9KdzQ1C8pVn0ZL19PEyYqeSiAAfQGIHi9225R3Wbi3S9ISSnDUlWS2YfFJbOk9oC0JuDuis4Kasz8/VYShKUZxcJxeJRknGUXyNPYUbO46U0Jb3f5+hCo0sKeuNRLkU44aXaaGr5O7OTypV4LkjODX8UWzbHFQazyMUsLJbGcqbMvQT/AM1Z/SLf+eJ0j8nFp8rc/Xp/gL23k+tadSnUjUruVOpCrFSlT3rlGSks/A2ZRLxNNpoiOHmnfI9Pf8DuNbk2V/wGazJ8hpL9fuXqdujzQRkZIOcewyQRkgq2STkgmCy4rlNn7nw/a7/7HvQwlSum4Wy3lJ1Iw2mqINt7mw/a7/7Ee5sOWff/AGPd6LxG7j+COUQ9o1OSMm39zYcs+/8AsPcyHLPvXsK/KsRu4/gnlFP2jT5K5Nz7lw5Zd69g9yqfLPvXsIeicTu4jlNP2jS5IN17lU+WXevYPcmnyy717CPlGJ/x4/gtymmaUmEXJpJZb2JbWbn3Lp/tPra+5GTRt4wXwYpfeXpaGrN/XJJbs35W97CssVG2WZ8tHWnm46+E+EZgB9DSpRpQUIbEYZScndgAHoQAAAAAAAAAYukOA+tGrybTSH5t9hqsnz2lP1+5epsoc0ZIyMlTmnsSQQCtywTxs2o+vpNT5R958clckxqTjzW12Noaqe0+/pdT5R95HpdT5R958MhJt4Sbb2Ja2x8er+58WNSPUj7emVOe+8j0yp8o+8mVjVSzvO7DfcYzJnPEQ57mu1yRMYwey3gff0yp8o+83ts24QbeW4pt8rwebPSWv5un8yH2I6eh6k51J60m8ltbfTvZnxUUoqy6T7AA+gMQAAAAAAAAAAAAAAAAABi6R/NvsNQbu5p7+Eo8bWo0bPn9LRaqqXQ15P8AKNmHd42GSARk5NzQCMjJGSrZYZIyRkjJVsknJt9EUkoKfxp518mOI0xttEV1vfNvhJtrpT1+06GinBYla3U7duXpc8cSnqZG0NPpmgk4zWpvVLpfEbg0ml7lTahF53uW2tnUdnSrgsNJS6dnb/G3dcy4dP4isYB6S24FP5kPsR52lTc5Ritsv+5PTRjhJLYlhGDQkHec+jJd+fke2LlkkWAB9AYgAAAAAAAAAAAAAAAAAAa6+s99mUVr41ymxB416EK8NSezxT6173PItCTi7o82yuTe3FpCptWvlNfV0XNcF77wPna+jK9N/StZbtvDbwubYV4PbkYOSMl6tGUeFFrpecd58snNleLtJWe80LPYWyQCClyQAfWnbVJcGDfTs8WTCLqO0Vfcs/BBu2byKyuJtYcpNcjeopCLk0kst7EtpsaOiZfHkkuRa/E2VC2jBfBjjl42zq0dF4is71Xqrfm+H32bzPLEQjlHMx9H2Xm1mWub7kZ4B9FRowowUIKyXviYZScndgAHqVAAAAAAAAAAAAAAAAAAAAAAAAB8nSi9sYvsR9QQ1dWYTtsMf0KnzEPQ6a+Iu3WZAPP4FL9i4L7FteXWz5wpKOxJdSPoAeqyVioAAAAAAAAAAAAAAAAAAAAAAAAAAABDKMAvkrvz5sqwD6+cHnD4sgA+3nB5w+AAMjzg84fAsgD7qROTHRdAH2B80XQBIAAAAAAAAAAAP//Z;clipPath=inset(0% 0% 8.72% 0% round 1%);" vertex="1" parent="WKSU7iLLkj0RBHHprCL3-803">
          <mxGeometry x="16" y="9.559999999999945" width="42.78" height="42.88" as="geometry" />
        </mxCell>
        <mxCell id="WKSU7iLLkj0RBHHprCL3-808" value="" style="group" vertex="1" connectable="0" parent="1">
          <mxGeometry x="549" y="622" width="195" height="60" as="geometry" />
        </mxCell>
        <mxCell id="WKSU7iLLkj0RBHHprCL3-809" value="" style="strokeColor=#dddddd;shadow=1;strokeWidth=1;rounded=1;absoluteArcSize=1;arcSize=0;noLabel=0;" vertex="1" parent="WKSU7iLLkj0RBHHprCL3-808">
          <mxGeometry width="195" height="60" as="geometry" />
        </mxCell>
        <mxCell id="WKSU7iLLkj0RBHHprCL3-810" value="PLOTLY" style="text;html=1;align=left;verticalAlign=middle;resizable=0;points=[];autosize=1;strokeColor=none;fillColor=none;" vertex="1" parent="WKSU7iLLkj0RBHHprCL3-808">
          <mxGeometry x="69" y="10" width="70" height="30" as="geometry" />
        </mxCell>
        <mxCell id="WKSU7iLLkj0RBHHprCL3-811" value="&lt;font size=&quot;1&quot; color=&quot;#999999&quot;&gt;5.18&lt;br&gt;&lt;/font&gt;" style="text;html=1;align=left;verticalAlign=middle;resizable=0;points=[];autosize=1;strokeColor=none;fillColor=none;" vertex="1" parent="WKSU7iLLkj0RBHHprCL3-808">
          <mxGeometry x="69" y="25" width="40" height="30" as="geometry" />
        </mxCell>
        <mxCell id="WKSU7iLLkj0RBHHprCL3-764" value="" style="shape=image;verticalLabelPosition=bottom;labelBackgroundColor=default;verticalAlign=top;aspect=fixed;imageAspect=0;image=data:image/png,iVBORw0KGgoAAAANSUhEUgAAAYUAAACBCAMAAAAYG1bYAAABC1BMVEX///8oLTMXHiUgJi0AAA4UGyMFERsjKC5MUFQAABFfYmUMFR74+PmbnZ/ExcbU1dWpqqva29wsMTeuoMn3N3ato8v5NHSpqM/yPnyxnMYbISgACxeJ1vTx8vLVaJ3SbaDOcqWH2Pb8MHDwQX6Oz+6E3vrm5+eChIaQkpUAAABCRkvHyMmxkL5ucXQ7P0Sur7G5urz8AGDYX5fS1+lnam1VWFzm4O17fYD10t/55+70krH0X47vf6XqyNrXj7bYg63gudHKwty3r9HQ6Pei1/L2tMjKcaXYz+Pk9PvZeKaWzOzWpcXS5vWp5vv/AGDu6vP0obv3usztZJTNwdvjscvBrM721+LqSISor9QSCNdVAAAJ+klEQVR4nO2ca0PbOBaGYzuyE2SHJNAB7JqytE0MNIm7Qwj0NlPa0p3OzjLTmXbn//+StWNJ1s2hLiH2hvN+aSPLjnweXY6OTmg0QCAQCAQCgUAgEAgEAoFAIBAIBAKBQCAQCAQCgUAgEAgEAoFAIBAIBAKB6q2LFy9fvjqXS1+/+enNz65UeP328vLtmVz13fuH79/JVUGl9OH54Q/b29uvhEL3l3/uP3r06Eq0+Me9va0HD3beilU/PXn48B9Pn/7rzlu6xjqfQ9jd3X7BlyYQ9h8dHBxcXXOFZ89SCjs7IoZPT1IKCQYYDd+v7cMf5hQe717kha8TCBmFX7mqe3uEwg5n8H8/oRR+W1mb104X/2EUPuSlbxiFq7zw+hml8PePeel7RuHp6lq9bkonJELh97z0Fx2FM0Zhh6PwCSjcXl+1Y+GnxWOBp/D+E1C4vQ5168LP2nUhp8Ct2bAuLEN/EB9pV3BV93U+0sfFPhK4qrfQi+eHyXZh+7NQeL2f7hcOrl4LpX8+m+8X/hYK3SfZfuHdnbd0rXX+OWHwh1z618H+1a/XUuHZ5dbW5Y9SofsuwfDb0nYLHc8blL1n4Hkd/RV34k1u26J7qFZgoqO43D3xETKDlu5Kz8YmtkpTve8aIiPRUSm7DZrpPXioudR3kivW8ZIad280N5uBumXu6c7JOX31ymaQXjGaMBhKyZ1bzTC9Mjd55vwmDYUOnl+xN5fVvvshoFAHAYW7Vxhy/w11vu1CCsk9oa6cUhiEmfIHKxT0D2gM7k9U3p2ZuJ/6oD2v1UcYGa2op9QpouDGo7GFsTUeqV4soWAghOdy2N0ShfDUxGN1Y9HtY1/nYK2lWokr4xx1etPAtObGcRIn/0SsU0DBjRIAc+/JsTCSEVEKTEFErkgUxmbaAukrG91m8mR8uqS3rLlOMq/Rsh3OXk57JEwGegonFuKNjCzRkAoFIyATj0ghtudfKe8esjpNZVyuWF8/fFAO/xtuZxKrk+j1x4/K4X9BVVldJNsqM3ifd+a1FLymdI/TFK8rFGjnFylEWb1AXKsnWR1ccr++ZF28TIPbjyUOE99G2JZmy+sve1tbD3YkDl1dVVUFFJI5hsOgoxAF6k1szkmlUqDbNJECaYE1Etp1nI3NQJ6oVir3kJz+Cxi89rxpaCpUpecLAoYoq4o3bviiIgrCpldDYaKBkBiNi9EpFEzaFpHCgDwp4Afupq00ogJ9Jqc8u4+5CbrXJu9j86GEL+zcmSvs0enCviF2KVCwEh/Joh/8fGVUKQxoU5LFHCGTLSpBPoKYj5S5SDiY0leRVueRnz2dH0inWTOUJX+lcvMTTy64HdHexS9lrvbEM/I1VXXiKPjmqBtPRia9NWDeo0qhRWA59rEXx9GxTTnmw5TuF2KifN6XKJB+bzh5qwakCN28sN2hvmpP/zdYP23nhfrT/ynrnc3F35RTsEfZK4czahUWlVYodMgs4jiEVMcibcsn8m/fO7eyxnIrMelv/mxx4+9YN1HgTKun0GIUOGA6MQp23tE9OlNTiyoUyFBw+qyvhlnYlRsM304hxjJ1MhyDav1UN6fAnW5qKXAzErc8l6YgdLuh1BVlCnRVwJwfRSeRJgVTIo5EGsuc1S7BMlXvXalePSer83+5Qi2FxpdnmtW5NAVL2KaRLzLJR5nCJLsJ6fYHaCJ+/hYKpCpzVsdZ6+2C89LVaZfkYHCJMAUUmKfKH0eXpeBHQikxC50RZAqjrCG+sHaGSBxAJSiExKMjHhbZzzvG4qavQO6rdNf2mYdQQKHh/pliuBRMUpaCFGUmbgtdL2UKWV+1pL1I1jxnTD6WiWyLzip5z3JHe3ck9/z8QiwpoJBUPTuTgsBlKWDx9NG1hSlHpmDwNmMaElOSj2Uo0J0QTj8MyMjA9QxsF1JQVZYCEt+YOCmmnoJriVCIiHtJH1XqlGeaPRKniwqhWdew9gopmIsohCIjqttQiEnEYsy+27BrmhywxhRIlkdaRqN7N0XAqtI6U/CI7U+Zm1ppNHWB1plCSHePpEHM1aqd1plCY0aiFuSfWripWtWGwvJ9pMRZFQ8s7Hq6qY07pSDtFxrfs1+ItPsFQzWnPh9pyt7OqK+b2rhTCpJFekvYO9NRph4R6Cl06BnFvNW1cVNduRcVU1CqlqVgloojkZMwMQLoSiE5Eq/GakiuIDfPyNNAauOmxi2ExqJtiijELRONxUm6dEzVESxKDILJR5kC7eZdzZNYIRlPGoMWUOCO/ao99M81CxKTO2jMG6eAwixIbOZgoWppCiY/EUfMec+knC+QlZQPqoZkGcjz4UkT1Ph0AYUQ0zbXxU3t0vfkDzr0FOjJmM93uu84a8s7dhxI9lPO2kieinXMyLtjMkvlP94h8SADyydmRdnC9IYsnFQDscHJJ0vpKbCEE/58sDwFIxhmJnVpplHeIxUKJOxjWH16gt+3lJ5PY6NGIPn+RRR6LIegHm5q7jzz51laClxV7mW/g4JhWsP4JB46FKvNTuPVHAwyGAwnmHY7ne6UJlg6/O/YRqxv96O4k3s9hZnzJGdBdoGrEusVwtZIS2GTVb0thWRSwxj77EM+w6kUcvYOwhjl+Uj87BOyZzvJk4PTgnykvD757rpEUyuiwMvhll5Nbp5n624KRE+t0+YvIurDFlHwJKegalVPwQluyFOdaTAoabFdISzR1OZs5yLR7UCZqSpS5RR8h59aXEel0Bi25ZsCdT6ftLmMfH3Odl6X5L/UxE2tggLirJUMhA0x7pAtxraYxh7na8i8pUiX5b7ZZ7sAo00eSpynpvgdPVKxLm5qBRSszjjws3scP+jL9oxTu/lyZko4a9LkYgs1hwU5pR7C2ZPz+WqEDWX62qT9ANXDTW1UQAElDxqOTWxjczzUhA8mvm1PVTOH3Q0H2zZ2NroLbNeZ9dMnc1afiR+TLx/RFaTaNG1Bq6cwN2I4GAyKsqQHRe5jcs/NnmUoPTjkfr/Z2Rgjm76a06/NUKiKQiXymha3JtUljpfqHlEIhZ/HBfWZj+4VhRPhcKcmsYtMq6NAf0u53PaXEEfBr/gXnbJWRyE7KvArDBrQH8X57dOaxI+oVkehMTkyfdyv8PdjJ23km8i2Z1X/wFzRCik0BtGw2t1q6A2jSV1iR7xWSQFUJKBQBwGFOggo1EFAoQ4CCnXQEincmNIKKpI+vWXEKCBtVc7tP2VV7dW1eu3EzhLb3I5yQg8Pff4vOjF7BzdWBZXThBytm0KAhyQpCGjY34syBXvTBGj4M8q3UdRMs4XxsRBxHljp4azfFiMOw3Za1W4JVXu+Oa9aryjl/51ONuzmsfzjLjfqN/2Rkn27YbeVqmHUP/JnMBJAIBAIBAKBQCAQCAQCgUAgEAgEAoFAIBAIBAKBQLfV/wD2/u2SfXLkQQAAAABJRU5ErkJggg==;clipPath=inset(0.51% 58.67% 1.52% 9.67%);" vertex="1" parent="WKSU7iLLkj0RBHHprCL3-808">
          <mxGeometry x="10" y="6.360000000000014" width="46.30028041237113" height="47.28" as="geometry" />
        </mxCell>
        <mxCell id="WKSU7iLLkj0RBHHprCL3-813" value="" style="group" vertex="1" connectable="0" parent="1">
          <mxGeometry x="279" y="586" width="195" height="61" as="geometry" />
        </mxCell>
        <mxCell id="WKSU7iLLkj0RBHHprCL3-814" value="" style="strokeColor=#dddddd;shadow=1;strokeWidth=1;rounded=1;absoluteArcSize=1;arcSize=0;noLabel=0;" vertex="1" parent="WKSU7iLLkj0RBHHprCL3-813">
          <mxGeometry width="195" height="60" as="geometry" />
        </mxCell>
        <mxCell id="WKSU7iLLkj0RBHHprCL3-815" value="STREAMLIT" style="text;html=1;align=left;verticalAlign=middle;resizable=0;points=[];autosize=1;strokeColor=none;fillColor=none;" vertex="1" parent="WKSU7iLLkj0RBHHprCL3-813">
          <mxGeometry x="69" y="10" width="90" height="30" as="geometry" />
        </mxCell>
        <mxCell id="WKSU7iLLkj0RBHHprCL3-816" value="&lt;font size=&quot;1&quot; color=&quot;#999999&quot;&gt;1.31.1&lt;br&gt;&lt;/font&gt;" style="text;html=1;align=left;verticalAlign=middle;resizable=0;points=[];autosize=1;strokeColor=none;fillColor=none;" vertex="1" parent="WKSU7iLLkj0RBHHprCL3-813">
          <mxGeometry x="69" y="25" width="50" height="30" as="geometry" />
        </mxCell>
        <mxCell id="WKSU7iLLkj0RBHHprCL3-725" value="" style="shape=image;verticalLabelPosition=bottom;labelBackgroundColor=default;verticalAlign=top;aspect=fixed;imageAspect=0;image=https://streamlit.io/sharing-image-facebook.jpg;clipPath=inset(18.35% 33.33% 18.35% 33.33% round 49%);" vertex="1" parent="WKSU7iLLkj0RBHHprCL3-813">
          <mxGeometry x="10" y="4" width="52" height="52" as="geometry" />
        </mxCell>
        <mxCell id="WKSU7iLLkj0RBHHprCL3-819" value="" style="group" vertex="1" connectable="0" parent="1">
          <mxGeometry x="16" y="405" width="195" height="60" as="geometry" />
        </mxCell>
        <mxCell id="WKSU7iLLkj0RBHHprCL3-820" value="" style="strokeColor=#dddddd;shadow=1;strokeWidth=1;rounded=1;absoluteArcSize=1;arcSize=0;noLabel=0;" vertex="1" parent="WKSU7iLLkj0RBHHprCL3-819">
          <mxGeometry width="195" height="60" as="geometry" />
        </mxCell>
        <mxCell id="WKSU7iLLkj0RBHHprCL3-821" value="PLOTLY" style="text;html=1;align=left;verticalAlign=middle;resizable=0;points=[];autosize=1;strokeColor=none;fillColor=none;" vertex="1" parent="WKSU7iLLkj0RBHHprCL3-819">
          <mxGeometry x="69" y="10" width="70" height="30" as="geometry" />
        </mxCell>
        <mxCell id="WKSU7iLLkj0RBHHprCL3-822" value="&lt;font size=&quot;1&quot; color=&quot;#999999&quot;&gt;5.18&lt;br&gt;&lt;/font&gt;" style="text;html=1;align=left;verticalAlign=middle;resizable=0;points=[];autosize=1;strokeColor=none;fillColor=none;" vertex="1" parent="WKSU7iLLkj0RBHHprCL3-819">
          <mxGeometry x="69" y="25" width="40" height="30" as="geometry" />
        </mxCell>
        <mxCell id="WKSU7iLLkj0RBHHprCL3-823" value="" style="shape=image;verticalLabelPosition=bottom;labelBackgroundColor=default;verticalAlign=top;aspect=fixed;imageAspect=0;image=data:image/png,iVBORw0KGgoAAAANSUhEUgAAAYUAAACBCAMAAAAYG1bYAAABC1BMVEX///8oLTMXHiUgJi0AAA4UGyMFERsjKC5MUFQAABFfYmUMFR74+PmbnZ/ExcbU1dWpqqva29wsMTeuoMn3N3ato8v5NHSpqM/yPnyxnMYbISgACxeJ1vTx8vLVaJ3SbaDOcqWH2Pb8MHDwQX6Oz+6E3vrm5+eChIaQkpUAAABCRkvHyMmxkL5ucXQ7P0Sur7G5urz8AGDYX5fS1+lnam1VWFzm4O17fYD10t/55+70krH0X47vf6XqyNrXj7bYg63gudHKwty3r9HQ6Pei1/L2tMjKcaXYz+Pk9PvZeKaWzOzWpcXS5vWp5vv/AGDu6vP0obv3usztZJTNwdvjscvBrM721+LqSISor9QSCNdVAAAJ+klEQVR4nO2ca0PbOBaGYzuyE2SHJNAB7JqytE0MNIm7Qwj0NlPa0p3OzjLTmXbn//+StWNJ1s2hLiH2hvN+aSPLjnweXY6OTmg0QCAQCAQCgUAgEAgEAoFAIBAIBAKBQCAQCAQCgUAgEAgEAoFAIBAIBAKB6q2LFy9fvjqXS1+/+enNz65UeP328vLtmVz13fuH79/JVUGl9OH54Q/b29uvhEL3l3/uP3r06Eq0+Me9va0HD3beilU/PXn48B9Pn/7rzlu6xjqfQ9jd3X7BlyYQ9h8dHBxcXXOFZ89SCjs7IoZPT1IKCQYYDd+v7cMf5hQe717kha8TCBmFX7mqe3uEwg5n8H8/oRR+W1mb104X/2EUPuSlbxiFq7zw+hml8PePeel7RuHp6lq9bkonJELh97z0Fx2FM0Zhh6PwCSjcXl+1Y+GnxWOBp/D+E1C4vQ5168LP2nUhp8Ct2bAuLEN/EB9pV3BV93U+0sfFPhK4qrfQi+eHyXZh+7NQeL2f7hcOrl4LpX8+m+8X/hYK3SfZfuHdnbd0rXX+OWHwh1z618H+1a/XUuHZ5dbW5Y9SofsuwfDb0nYLHc8blL1n4Hkd/RV34k1u26J7qFZgoqO43D3xETKDlu5Kz8YmtkpTve8aIiPRUSm7DZrpPXioudR3kivW8ZIad280N5uBumXu6c7JOX31ymaQXjGaMBhKyZ1bzTC9Mjd55vwmDYUOnl+xN5fVvvshoFAHAYW7Vxhy/w11vu1CCsk9oa6cUhiEmfIHKxT0D2gM7k9U3p2ZuJ/6oD2v1UcYGa2op9QpouDGo7GFsTUeqV4soWAghOdy2N0ShfDUxGN1Y9HtY1/nYK2lWokr4xx1etPAtObGcRIn/0SsU0DBjRIAc+/JsTCSEVEKTEFErkgUxmbaAukrG91m8mR8uqS3rLlOMq/Rsh3OXk57JEwGegonFuKNjCzRkAoFIyATj0ghtudfKe8esjpNZVyuWF8/fFAO/xtuZxKrk+j1x4/K4X9BVVldJNsqM3ifd+a1FLymdI/TFK8rFGjnFylEWb1AXKsnWR1ccr++ZF28TIPbjyUOE99G2JZmy+sve1tbD3YkDl1dVVUFFJI5hsOgoxAF6k1szkmlUqDbNJECaYE1Etp1nI3NQJ6oVir3kJz+Cxi89rxpaCpUpecLAoYoq4o3bviiIgrCpldDYaKBkBiNi9EpFEzaFpHCgDwp4Afupq00ogJ9Jqc8u4+5CbrXJu9j86GEL+zcmSvs0enCviF2KVCwEh/Joh/8fGVUKQxoU5LFHCGTLSpBPoKYj5S5SDiY0leRVueRnz2dH0inWTOUJX+lcvMTTy64HdHexS9lrvbEM/I1VXXiKPjmqBtPRia9NWDeo0qhRWA59rEXx9GxTTnmw5TuF2KifN6XKJB+bzh5qwakCN28sN2hvmpP/zdYP23nhfrT/ynrnc3F35RTsEfZK4czahUWlVYodMgs4jiEVMcibcsn8m/fO7eyxnIrMelv/mxx4+9YN1HgTKun0GIUOGA6MQp23tE9OlNTiyoUyFBw+qyvhlnYlRsM304hxjJ1MhyDav1UN6fAnW5qKXAzErc8l6YgdLuh1BVlCnRVwJwfRSeRJgVTIo5EGsuc1S7BMlXvXalePSer83+5Qi2FxpdnmtW5NAVL2KaRLzLJR5nCJLsJ6fYHaCJ+/hYKpCpzVsdZ6+2C89LVaZfkYHCJMAUUmKfKH0eXpeBHQikxC50RZAqjrCG+sHaGSBxAJSiExKMjHhbZzzvG4qavQO6rdNf2mYdQQKHh/pliuBRMUpaCFGUmbgtdL2UKWV+1pL1I1jxnTD6WiWyLzip5z3JHe3ck9/z8QiwpoJBUPTuTgsBlKWDx9NG1hSlHpmDwNmMaElOSj2Uo0J0QTj8MyMjA9QxsF1JQVZYCEt+YOCmmnoJriVCIiHtJH1XqlGeaPRKniwqhWdew9gopmIsohCIjqttQiEnEYsy+27BrmhywxhRIlkdaRqN7N0XAqtI6U/CI7U+Zm1ppNHWB1plCSHePpEHM1aqd1plCY0aiFuSfWripWtWGwvJ9pMRZFQ8s7Hq6qY07pSDtFxrfs1+ItPsFQzWnPh9pyt7OqK+b2rhTCpJFekvYO9NRph4R6Cl06BnFvNW1cVNduRcVU1CqlqVgloojkZMwMQLoSiE5Eq/GakiuIDfPyNNAauOmxi2ExqJtiijELRONxUm6dEzVESxKDILJR5kC7eZdzZNYIRlPGoMWUOCO/ao99M81CxKTO2jMG6eAwixIbOZgoWppCiY/EUfMec+knC+QlZQPqoZkGcjz4UkT1Ph0AYUQ0zbXxU3t0vfkDzr0FOjJmM93uu84a8s7dhxI9lPO2kieinXMyLtjMkvlP94h8SADyydmRdnC9IYsnFQDscHJJ0vpKbCEE/58sDwFIxhmJnVpplHeIxUKJOxjWH16gt+3lJ5PY6NGIPn+RRR6LIegHm5q7jzz51laClxV7mW/g4JhWsP4JB46FKvNTuPVHAwyGAwnmHY7ne6UJlg6/O/YRqxv96O4k3s9hZnzJGdBdoGrEusVwtZIS2GTVb0thWRSwxj77EM+w6kUcvYOwhjl+Uj87BOyZzvJk4PTgnykvD757rpEUyuiwMvhll5Nbp5n624KRE+t0+YvIurDFlHwJKegalVPwQluyFOdaTAoabFdISzR1OZs5yLR7UCZqSpS5RR8h59aXEel0Bi25ZsCdT6ftLmMfH3Odl6X5L/UxE2tggLirJUMhA0x7pAtxraYxh7na8i8pUiX5b7ZZ7sAo00eSpynpvgdPVKxLm5qBRSszjjws3scP+jL9oxTu/lyZko4a9LkYgs1hwU5pR7C2ZPz+WqEDWX62qT9ANXDTW1UQAElDxqOTWxjczzUhA8mvm1PVTOH3Q0H2zZ2NroLbNeZ9dMnc1afiR+TLx/RFaTaNG1Bq6cwN2I4GAyKsqQHRe5jcs/NnmUoPTjkfr/Z2Rgjm76a06/NUKiKQiXymha3JtUljpfqHlEIhZ/HBfWZj+4VhRPhcKcmsYtMq6NAf0u53PaXEEfBr/gXnbJWRyE7KvArDBrQH8X57dOaxI+oVkehMTkyfdyv8PdjJ23km8i2Z1X/wFzRCik0BtGw2t1q6A2jSV1iR7xWSQFUJKBQBwGFOggo1EFAoQ4CCnXQEincmNIKKpI+vWXEKCBtVc7tP2VV7dW1eu3EzhLb3I5yQg8Pff4vOjF7BzdWBZXThBytm0KAhyQpCGjY34syBXvTBGj4M8q3UdRMs4XxsRBxHljp4azfFiMOw3Za1W4JVXu+Oa9aryjl/51ONuzmsfzjLjfqN/2Rkn27YbeVqmHUP/JnMBJAIBAIBAKBQCAQCAQCgUAgEAgEAoFAIBAIBAKBQLfV/wD2/u2SfXLkQQAAAABJRU5ErkJggg==;clipPath=inset(0.51% 58.67% 1.52% 9.67%);" vertex="1" parent="WKSU7iLLkj0RBHHprCL3-819">
          <mxGeometry x="10" y="6.360000000000014" width="46.30028041237113" height="47.28" as="geometry" />
        </mxCell>
        <mxCell id="WKSU7iLLkj0RBHHprCL3-826" value="" style="edgeStyle=orthogonalEdgeStyle;rounded=0;orthogonalLoop=1;jettySize=auto;html=1;entryX=0;entryY=0.5;entryDx=0;entryDy=0;" edge="1" parent="1" source="WKSU7iLLkj0RBHHprCL3-820" target="WKSU7iLLkj0RBHHprCL3-785">
          <mxGeometry relative="1" as="geometry">
            <mxPoint x="388.5" y="460" as="targetPoint" />
          </mxGeometry>
        </mxCell>
        <mxCell id="WKSU7iLLkj0RBHHprCL3-832" value="" style="group" vertex="1" connectable="0" parent="1">
          <mxGeometry x="16" y="482" width="195" height="60" as="geometry" />
        </mxCell>
        <mxCell id="WKSU7iLLkj0RBHHprCL3-833" value="" style="strokeColor=#dddddd;shadow=1;strokeWidth=1;rounded=1;absoluteArcSize=1;arcSize=0;noLabel=0;" vertex="1" parent="WKSU7iLLkj0RBHHprCL3-832">
          <mxGeometry width="195" height="60" as="geometry" />
        </mxCell>
        <mxCell id="WKSU7iLLkj0RBHHprCL3-834" value="SCIKIT LEARN" style="text;html=1;align=left;verticalAlign=middle;resizable=0;points=[];autosize=1;strokeColor=none;fillColor=none;" vertex="1" parent="WKSU7iLLkj0RBHHprCL3-832">
          <mxGeometry x="69" y="10" width="110" height="30" as="geometry" />
        </mxCell>
        <mxCell id="WKSU7iLLkj0RBHHprCL3-835" value="&lt;font size=&quot;1&quot; color=&quot;#999999&quot;&gt;1.4.1&lt;br&gt;&lt;/font&gt;" style="text;html=1;align=left;verticalAlign=middle;resizable=0;points=[];autosize=1;strokeColor=none;fillColor=none;" vertex="1" parent="WKSU7iLLkj0RBHHprCL3-832">
          <mxGeometry x="69" y="25" width="50" height="30" as="geometry" />
        </mxCell>
        <mxCell id="WKSU7iLLkj0RBHHprCL3-829" value="" style="shape=image;verticalLabelPosition=bottom;labelBackgroundColor=default;verticalAlign=top;aspect=fixed;imageAspect=0;image=https://anderfernandez.com/wp-content/uploads/2021/10/Tutorial-Sklearn.jpg;clipPath=inset(19.54% 28% 19.54% 28.33%);" vertex="1" parent="WKSU7iLLkj0RBHHprCL3-832">
          <mxGeometry x="10" y="10" width="50.66" height="41" as="geometry" />
        </mxCell>
        <mxCell id="WKSU7iLLkj0RBHHprCL3-839" style="edgeStyle=orthogonalEdgeStyle;rounded=0;orthogonalLoop=1;jettySize=auto;html=1;exitX=1;exitY=0.5;exitDx=0;exitDy=0;entryX=0;entryY=0.5;entryDx=0;entryDy=0;" edge="1" parent="1" source="WKSU7iLLkj0RBHHprCL3-833" target="WKSU7iLLkj0RBHHprCL3-785">
          <mxGeometry relative="1" as="geometry" />
        </mxCell>
        <mxCell id="WKSU7iLLkj0RBHHprCL3-842" style="edgeStyle=orthogonalEdgeStyle;rounded=0;orthogonalLoop=1;jettySize=auto;html=1;exitX=0.5;exitY=1;exitDx=0;exitDy=0;entryX=0.5;entryY=0;entryDx=0;entryDy=0;" edge="1" parent="1" source="WKSU7iLLkj0RBHHprCL3-785" target="WKSU7iLLkj0RBHHprCL3-814">
          <mxGeometry relative="1" as="geometry" />
        </mxCell>
        <mxCell id="WKSU7iLLkj0RBHHprCL3-843" style="edgeStyle=orthogonalEdgeStyle;rounded=0;orthogonalLoop=1;jettySize=auto;html=1;exitX=0;exitY=0.5;exitDx=0;exitDy=0;entryX=1;entryY=0.5;entryDx=0;entryDy=0;" edge="1" parent="1" source="WKSU7iLLkj0RBHHprCL3-804" target="WKSU7iLLkj0RBHHprCL3-814">
          <mxGeometry relative="1" as="geometry" />
        </mxCell>
        <mxCell id="WKSU7iLLkj0RBHHprCL3-845" style="edgeStyle=orthogonalEdgeStyle;rounded=0;orthogonalLoop=1;jettySize=auto;html=1;exitX=0;exitY=0.5;exitDx=0;exitDy=0;entryX=1;entryY=0.5;entryDx=0;entryDy=0;" edge="1" parent="1" source="WKSU7iLLkj0RBHHprCL3-809" target="WKSU7iLLkj0RBHHprCL3-814">
          <mxGeometry relative="1" as="geometry" />
        </mxCell>
      </root>
    </mxGraphModel>
  </diagram>
</mxfile>
